<?xml version="1.0" encoding="UTF-8"?>
<svg version="1.1" xmlns="http://www.w3.org/2000/svg" width="500" height="331">
<path d="M0 0 C11.20713267 9.14787154 17.87526567 22.62752383 19.375 36.875 C20.61775428 50.63406523 16.7559264 63.73341058 8.265625 74.56640625 C-0.84849354 85.11049856 -12.40540362 93.33655835 -26.625 94.875 C-38.26699874 95.36929715 -38.26699874 95.36929715 -42.99906921 94.37733459 C-45.67657171 93.86513445 -48.15062318 93.71698669 -50.87426758 93.66967773 C-51.89494827 93.64973251 -52.91562897 93.62978729 -53.96723938 93.60923767 C-55.0569957 93.59252518 -56.14675201 93.57581268 -57.26953125 93.55859375 C-58.95691658 93.5274221 -58.95691658 93.5274221 -60.6783905 93.49562073 C-64.2646994 93.43034208 -67.85108027 93.37134101 -71.4375 93.3125 C-73.87175217 93.26929417 -76.30599712 93.22567922 -78.74023438 93.18164062 C-84.70174728 93.0746829 -90.66333146 92.9728765 -96.625 92.875 C-96.625 91.885 -96.625 90.895 -96.625 89.875 C-84.415 89.545 -72.205 89.215 -59.625 88.875 C-63.82534171 85.7009599 -63.82534171 85.7009599 -68.57714844 85.44262695 C-69.55786316 85.42283279 -70.53857788 85.40303864 -71.54901123 85.38264465 C-73.1257663 85.37305977 -73.1257663 85.37305977 -74.734375 85.36328125 C-76.35729462 85.33635445 -76.35729462 85.33635445 -78.01300049 85.30888367 C-81.46696074 85.25472364 -84.92078235 85.22086597 -88.375 85.1875 C-90.71746723 85.15433204 -93.05991616 85.11984287 -95.40234375 85.08398438 C-101.14310484 84.99899389 -106.88388375 84.93066801 -112.625 84.875 C-112.625 83.885 -112.625 82.895 -112.625 81.875 C-98.765 81.545 -84.905 81.215 -70.625 80.875 C-71.285 79.555 -71.945 78.235 -72.625 76.875 C-89.125 76.875 -105.625 76.875 -122.625 76.875 C-122.955 75.885 -123.285 74.895 -123.625 73.875 C-100.855 73.38 -100.855 73.38 -77.625 72.875 C-79.935 68.255 -82.245 63.635 -84.625 58.875 C-88.73766495 44.74888995 -87.8122212 29.45495301 -80.90893555 16.41064453 C-73.59392778 3.33517611 -63.40610474 -4.46591666 -49.23046875 -9.3984375 C-31.85352426 -14.24418214 -14.47244983 -10.34099834 0 0 Z M-62.375 17.75390625 C-70.30685783 27.56958031 -71.6706965 37.62356812 -70.625 49.875 C-70.05224648 52.89023959 -69.15765222 55.22611427 -67.625 57.875 C-67.00431641 58.97714844 -67.00431641 58.97714844 -66.37109375 60.1015625 C-60.62565912 69.46333336 -53.22079998 75.17863327 -42.76953125 78.45703125 C-32.34894838 80.48800095 -22.52511679 78.88584527 -13.4140625 73.58984375 C-4.26514978 67.29777542 1.09684377 58.68268162 3.375 47.875 C4.62166973 36.69747257 2.25337657 27.2853779 -4.4765625 18.26953125 C-11.3622286 10.5951434 -19.64095056 5.53105221 -29.91015625 4.56640625 C-43.15960635 4.0906371 -53.30532477 8.01615226 -62.375 17.75390625 Z " fill="#3C5362" transform="translate(200.625,112.125)"/>
<path d="M0 0 C1.84171492 1.3570531 3.65807187 2.74974394 5.4375 4.1875 C6.10136719 4.72117187 6.76523437 5.25484375 7.44921875 5.8046875 C17.23110932 14.64136168 23.01982457 26.84988158 23.74609375 39.86328125 C24.36198924 57.39210074 20.13226928 70.51275404 8.2734375 83.5703125 C-2.76503135 94.12710271 -16.96122619 98.46490908 -31.96875 98.5859375 C-35.1965933 98.22806792 -37.94161712 97.56226181 -41.05761719 96.69458008 C-47.18910396 95.14088761 -52.93058642 94.71655097 -59.234375 94.67578125 C-60.28280579 94.65783005 -61.33123657 94.63987885 -62.41143799 94.62138367 C-65.71175283 94.56783914 -69.01192786 94.53356596 -72.3125 94.5 C-74.57033174 94.46677753 -76.82814514 94.43228343 -79.0859375 94.39648438 C-84.57799931 94.31214593 -90.07008057 94.24356376 -95.5625 94.1875 C-95.0675 92.7025 -95.0675 92.7025 -94.5625 91.1875 C-82.3525 90.8575 -70.1425 90.5275 -57.5625 90.1875 C-62.48590661 87.15070527 -62.48590661 87.15070527 -67.62817383 86.75512695 C-68.60881302 86.73533279 -69.58945221 86.71553864 -70.59980774 86.69514465 C-71.6458165 86.68875473 -72.69182526 86.68236481 -73.76953125 86.67578125 C-75.39032845 86.64885445 -75.39032845 86.64885445 -77.04386902 86.62138367 C-80.48753992 86.56729737 -83.93107232 86.53338955 -87.375 86.5 C-89.71290989 86.46682553 -92.05080151 86.43233576 -94.38867188 86.39648438 C-100.11315706 86.31157181 -105.8376602 86.24321469 -111.5625 86.1875 C-111.2325 85.1975 -110.9025 84.2075 -110.5625 83.1875 C-96.3725 82.8575 -82.1825 82.5275 -67.5625 82.1875 C-70.5325 78.2275 -73.5025 74.2675 -76.5625 70.1875 C-78.13694195 66.40883933 -79.49072833 63.06629271 -80.5625 59.1875 C-80.73612061 58.56738037 -80.90974121 57.94726074 -81.08862305 57.30834961 C-84.18286388 43.45998788 -81.4871718 28.39298571 -74.3125 16.375 C-65.66056433 3.74537357 -54.51990395 -4.08968825 -39.5390625 -7.15234375 C-25.90714102 -9.57891722 -11.71750036 -7.54314086 0 0 Z M-59.1015625 23.12109375 C-64.50152885 30.58262361 -68.00836092 39.85512498 -66.5625 49.1875 C-64.15595059 60.30346633 -59.94605688 69.2385889 -50.6875 76.125 C-41.28303165 82.10325275 -32.70311882 83.2683063 -21.5625 82.1875 C-10.37176043 79.32372806 -2.10635201 72.29440737 4.078125 62.71484375 C9.00186352 53.56065174 9.51533587 44.52627491 6.8125 34.6875 C4.90330336 28.90650599 2.6217175 24.59552448 -1.5625 20.1875 C-2.13742187 19.57261719 -2.71234375 18.95773438 -3.3046875 18.32421875 C-10.63456599 11.22244852 -19.02314406 7.93269998 -29.1875 7.625 C-41.53748731 8.06742534 -51.39729771 13.44187784 -59.1015625 23.12109375 Z " fill="#3C5462" transform="translate(351.5625,108.8125)"/>
<path d="M0 0 C1.20606903 -0.00145523 2.41213806 -0.00291046 3.65475464 -0.00440979 C6.18766716 -0.0027597 8.72059065 0.00870068 11.25341797 0.02954102 C15.11339154 0.05856521 18.97199465 0.05011522 22.83203125 0.03710938 C25.30469412 0.04334594 27.77735269 0.05173623 30.25 0.0625 C31.39397247 0.05956436 32.53794495 0.05662872 33.71658325 0.05360413 C44.03016845 0.17417739 52.42954206 2.10395086 60.03125 9.47265625 C67.63477575 17.51856896 69.40554134 24.50708083 69.6171875 35.30859375 C69.66820275 37.16937514 69.72273344 39.0300644 69.78125 40.890625 C69.79881348 41.70378174 69.81637695 42.51693848 69.83447266 43.35473633 C69.91773541 45.68222089 69.91773541 45.68222089 70.9921875 48.49609375 C74.03432017 50.01716009 77.27266322 49.87038713 80.6171875 50.05859375 C81.67679688 50.12336914 81.67679688 50.12336914 82.7578125 50.18945312 C84.50237287 50.29554126 86.24725447 50.39632264 87.9921875 50.49609375 C87.9921875 54.78609375 87.9921875 59.07609375 87.9921875 63.49609375 C85.3040626 63.57773534 82.6184645 63.63689043 79.9296875 63.68359375 C79.17751953 63.70873047 78.42535156 63.73386719 77.65039062 63.75976562 C71.55896418 63.83887506 66.91855944 62.89417542 62.06640625 58.91796875 C61.60878906 58.36625 61.15117187 57.81453125 60.6796875 57.24609375 C60.20917969 56.7046875 59.73867188 56.16328125 59.25390625 55.60546875 C55.26524772 48.93712323 55.6611979 41.46573477 55.68945312 33.96679688 C55.54596536 27.89865284 54.49251478 22.84088934 49.9921875 18.49609375 C43.59830009 13.92647871 37.2399803 13.9235356 29.609375 14 C28.4363382 13.99854477 27.26330139 13.99708954 26.05471802 13.99559021 C23.58544418 13.99724402 21.11615949 14.00874685 18.64697266 14.02954102 C14.87227581 14.05855464 11.09897979 14.05012579 7.32421875 14.03710938 C4.91926403 14.04334564 2.51431372 14.05173569 0.109375 14.0625 C-1.01574493 14.05956436 -2.14086487 14.05662872 -3.30007935 14.05360413 C-8.91247236 14.1210913 -13.21964847 14.21810316 -18.0078125 17.49609375 C-21.7700273 21.65433117 -22.57608341 24.9514769 -22.34765625 30.37890625 C-21.89026313 33.22841283 -20.69034697 35.18260885 -19.0078125 37.49609375 C-19.0078125 38.15609375 -19.0078125 38.81609375 -19.0078125 39.49609375 C-13.65202169 41.6673603 -9.36034332 42.6375693 -3.59375 42.671875 C-2.09503833 42.69509214 -0.5963404 42.71921022 0.90234375 42.74414062 C3.25220692 42.77907829 5.60157029 42.80850392 7.95166016 42.82202148 C24.63323377 42.93661695 24.63323377 42.93661695 31.9921875 47.49609375 C32.64106934 47.87386963 33.28995117 48.25164551 33.95849609 48.64086914 C40.99315828 52.90257725 44.95402967 60.14722721 47.39453125 67.80224609 C48.59389682 73.20821001 48.42113458 78.67200043 48.3671875 84.18359375 C48.37878906 85.38048828 48.39039063 86.57738281 48.40234375 87.81054688 C48.37925067 94.72692487 48.08134927 99.60066981 43.66015625 105.17578125 C37.82689309 109.88548713 31.14076991 108.94226047 23.9921875 108.49609375 C23.9921875 104.20609375 23.9921875 99.91609375 23.9921875 95.49609375 C28.9421875 95.00109375 28.9421875 95.00109375 33.9921875 94.49609375 C34.100764 90.82862099 34.17978608 87.16440569 34.2421875 83.49609375 C34.27570313 82.46613281 34.30921875 81.43617187 34.34375 80.375 C34.42669855 73.86353855 33.83253262 68.89182931 29.9921875 63.49609375 C24.8436288 58.60496298 20.97950196 57.25689897 13.91796875 57.15234375 C12.89306587 57.13040955 12.89306587 57.13040955 11.84745789 57.10803223 C9.66659393 57.06168209 7.48581542 57.02744219 5.3046875 56.99609375 C-19.66657651 56.63277374 -19.66657651 56.63277374 -27.82421875 48.73828125 C-34.7658159 41.34743668 -36.6877395 34.88009054 -36.41796875 24.74609375 C-35.48912075 17.38607913 -31.6733235 10.9992556 -26.15206909 6.07862854 C-18.38993946 0.34991107 -9.29867923 -0.09163871 0 0 Z " fill="#0549A6" transform="translate(207.0078125,44.50390625)"/>
<path d="M0 0 C9.82056713 6.20941689 15.3202796 15.24524595 17.98828125 26.40234375 C19.18736717 38.39320297 17.32060961 49.56734638 10.0625 59.53125 C1.31464853 69.44289546 -9.27940218 73.58758181 -22.16796875 74.75 C-34.54251256 75.21203654 -46.06445757 71.68071847 -55.17578125 63.23046875 C-64.6852366 53.25638204 -67.15796322 43.88095216 -66.90625 30.31640625 C-66.30635492 19.33719448 -61.37662759 10.54303876 -53.26171875 3.15234375 C-38.40787482 -8.61110312 -16.25754257 -8.86988936 0 0 Z M-39.90625 14.96484375 C-44.42176833 18.89993597 -47.4391088 24.41028845 -47.9375 30.3828125 C-48.1362488 39.3055875 -47.10799322 44.59414244 -41.26171875 51.33984375 C-36.13598808 55.71546749 -31.12427042 58.13960205 -24.38671875 58.90234375 C-16.98375269 58.14949974 -10.91131241 54.73943741 -5.69921875 49.52734375 C-1.35987385 43.47729557 -0.20896299 37.88118022 -0.69921875 30.52734375 C-2.38575157 22.91802637 -5.40108978 18.28856801 -11.38671875 13.27734375 C-21.19033677 8.09807385 -30.75511464 8.82755536 -39.90625 14.96484375 Z " fill="#3B5462" transform="translate(157.69921875,249.47265625)"/>
<path d="M0 0 C4.41772358 3.17502545 4.41772358 3.17502545 6.27734375 5.31640625 C6.27734375 9.31640625 6.27734375 9.31640625 4.66796875 11.421875 C3.9615625 12.10894531 3.25515625 12.79601562 2.52734375 13.50390625 C1.48320312 14.54611328 1.48320312 14.54611328 0.41796875 15.609375 C-1.74022615 17.33041728 -2.98486963 18.09442355 -5.72265625 18.31640625 C-7.4246203 17.02843345 -9.08610804 15.68653964 -10.72265625 14.31640625 C-19.00206917 10.17669979 -25.96080352 9.59721058 -34.72265625 12.31640625 C-40.86545218 14.77780532 -44.2162221 18.39501344 -46.875 24.43359375 C-48.88817673 31.28025008 -49.0155715 38.48057575 -45.78515625 44.94140625 C-45.10453125 46.05515625 -44.42390625 47.16890625 -43.72265625 48.31640625 C-43.39265625 49.30640625 -43.06265625 50.29640625 -42.72265625 51.31640625 C-40.95408907 52.45447667 -40.95408907 52.45447667 -38.72265625 53.31640625 C-37.46001953 53.84621094 -37.46001953 53.84621094 -36.171875 54.38671875 C-26.43200613 58.10632921 -21.32756025 57.43738705 -10.72265625 55.31640625 C-10.72265625 47.72640625 -10.72265625 40.13640625 -10.72265625 32.31640625 C-5.11265625 32.31640625 0.49734375 32.31640625 6.27734375 32.31640625 C6.507986 36.77036436 6.70635356 41.20349767 6.82666016 45.65869141 C6.87678343 47.17047389 6.94491216 48.68177538 7.03173828 50.19189453 C7.30468525 55.06319506 7.37944576 59.54207895 6.27734375 64.31640625 C3.3645915 67.5193451 0.32919554 68.92757097 -3.72265625 70.31640625 C-4.62556396 70.64487549 -5.52847168 70.97334473 -6.45874023 71.31176758 C-20.45097826 76.09787086 -34.62289049 75.24257118 -48.03515625 69.06640625 C-57.50833962 63.95846578 -63.37685552 55.6074173 -67.09765625 45.62890625 C-69.42046594 33.82328585 -68.37328331 21.90461633 -62.03515625 11.62890625 C-48.47751672 -7.31831343 -19.77159146 -12.22604866 0 0 Z " fill="#3C5463" transform="translate(71.72265625,249.68359375)"/>
<path d="M0 0 C8.329805 5.94163984 13.09590592 12.9897903 14.8125 23.125 C15.64924233 32.9475333 11.52057082 41.7874092 6.6875 50.0625 C5.62077259 51.9501728 4.55711944 53.83958524 3.49609375 55.73046875 C2.93390137 56.72868652 2.37170898 57.7269043 1.79248047 58.75537109 C-1.50914713 64.73175775 -4.62324946 70.80582766 -7.75 76.875 C-8.37662764 78.08866505 -9.00333468 79.30228911 -9.63012695 80.51586914 C-11.08882357 83.34285325 -12.54552386 86.1708428 -14 89 C-14.99 89 -15.98 89 -17 89 C-17.42708252 88.1656543 -17.85416504 87.33130859 -18.29418945 86.47167969 C-19.93109335 83.27739937 -21.57022101 80.08428441 -23.21136475 76.8921814 C-23.94435376 75.46620269 -24.67681801 74.03995413 -25.40875244 72.61343384 C-30.29783155 63.09133147 -35.25094308 53.62337998 -40.72387695 44.41894531 C-45.43367711 36.20584207 -47.21464633 27.30730449 -45 18 C-41.90977929 9.44739746 -36.9375494 2.85365025 -28.8125 -1.375 C-19.32937053 -5.81719914 -9.0641856 -5.12584957 0 0 Z M-30.4375 13.75 C-33.10788677 19.30440449 -33.65220581 23.82598063 -31.875 29.75 C-28.44713304 35.69163606 -24.86786122 38.70634537 -18.33984375 40.62890625 C-13.47798709 41.39998535 -9.67245622 39.76020737 -5.25 37.75 C-1.02464347 34.46361159 1.09626818 30.87139198 1.9375 25.625 C2.2555414 20.90208522 1.46600757 17.06270312 -1 13 C-4.23968628 9.43453521 -8.27883026 6.48592317 -13.078125 5.62890625 C-20.72247458 5.39517614 -25.41515454 8.0837641 -30.4375 13.75 Z " fill="#3C5463" transform="translate(402,230)"/>
<path d="M0 0 C6.373125 -0.061875 12.74625 -0.12375 19.3125 -0.1875 C22.29470581 -0.22846802 22.29470581 -0.22846802 25.3371582 -0.27026367 C38.80382306 -0.37858423 51.75688313 0.46092158 62.1953125 10.0078125 C71.41642548 19.77334544 73.50212225 29.60105904 73.27734375 42.65625 C72.83485828 52.81800587 68.25751848 60.98892769 61 67.90625 C48.80170465 78.18767037 35.95082322 77.50703475 20.8125 77.25 C13.944375 77.1675 7.07625 77.085 0 77 C0 51.59 0 26.18 0 0 Z M9 8 C9 28.46 9 48.92 9 70 C34.04286105 71.33368024 34.04286105 71.33368024 56 61 C56 60.34 56 59.68 56 59 C56.66 59 57.32 59 58 59 C58.81498562 57.3970947 59.62689927 55.79262722 60.4375 54.1875 C60.88996094 53.29417969 61.34242188 52.40085937 61.80859375 51.48046875 C65.13754663 44.549698 65.13399856 35.73410242 63.3515625 28.29296875 C59.76037977 19.529869 53.82424258 13.85535679 45.33203125 9.91015625 C33.38991331 5.24932965 23.52681503 8 9 8 Z " fill="#064AA6" transform="translate(194,245)"/>
<path d="M0 0 C45.91928251 0 45.91928251 0 55 9 C58.10889051 12.94411483 60.63611099 16.90555387 61 22 C61.0928125 23.07701172 61.0928125 23.07701172 61.1875 24.17578125 C61.51581233 30.77280707 60.44037081 36.30427499 57 42 C54.55247812 44.66820008 51.9105612 46.85687193 49 49 C47.66615194 49.99931333 46.33275003 50.99922273 45 52 C45.37286133 52.50861572 45.74572266 53.01723145 46.12988281 53.54125977 C47.840348 55.87894861 49.54519778 58.22067854 51.25 60.5625 C51.83652344 61.36236328 52.42304688 62.16222656 53.02734375 62.98632812 C56.32687922 67.52782358 59.32353588 72.06444116 62 77 C58.49283522 77.64681318 55.49453092 77.78714685 52 77 C47.63312901 73.37028888 44.72575504 68.61637294 42.41796875 63.4765625 C39.63681041 57.9015649 39.63681041 57.9015649 35 54 C26.5131694 52.06803856 17.63442024 52.61694572 9 53 C9 60.92 9 68.84 9 77 C6.03 77 3.06 77 0 77 C0 51.59 0 26.18 0 0 Z M9 8 C9 20.21 9 32.42 9 45 C15.620625 45.1546875 15.620625 45.1546875 22.375 45.3125 C24.43113525 45.38078003 24.43113525 45.38078003 26.52880859 45.45043945 C34.38309954 45.53864515 40.53109025 44.70861752 47 40 C51.01964238 35.48356263 52.25693028 29.97105965 52 24 C50.86560584 18.40834031 48.50471537 14.58329632 44 11 C37.19308906 7.00610021 30.26481162 7.66203128 22.5625 7.8125 C18.086875 7.874375 13.61125 7.93625 9 8 Z " fill="#0449A7" transform="translate(287,245)"/>
<path d="M0 0 C45.37623762 0 45.37623762 0 55 9 C59.94856908 14.33924559 60.58560975 20.96365363 61 28 C60.6906588 35.35200909 58.21888121 40.81575738 53 46 C43.78475793 53.48262425 33.88914347 53.27546633 22.5 53.125 C20.5509375 53.11146484 20.5509375 53.11146484 18.5625 53.09765625 C15.37491995 53.07421816 12.1874355 53.0383515 9 53 C9 60.92 9 68.84 9 77 C6.03 77 3.06 77 0 77 C0 51.59 0 26.18 0 0 Z M9 8 C9 20.21 9 32.42 9 45 C13.29 45.061875 17.58 45.12375 22 45.1875 C24.00513672 45.22846802 24.00513672 45.22846802 26.05078125 45.27026367 C33.58873237 45.32273594 39.77633163 45.14736677 46.0234375 40.4921875 C49.75336071 36.0292158 51.84638633 31.89492469 52 26 C51.21719137 19.52225855 49.09844003 15.23511275 44.01171875 11.15625 C39.29872208 8.44742084 34.88405244 7.75348521 29.5078125 7.8046875 C27.88576904 7.81218018 27.88576904 7.81218018 26.23095703 7.81982422 C24.1985083 7.84713623 24.1985083 7.84713623 22.125 7.875 C17.79375 7.91625 13.4625 7.9575 9 8 Z " fill="#044AA7" transform="translate(431,245)"/>
<path d="M0 0 C5.25311038 5.25311038 8.10906011 10.96017346 8.5 18.375 C8.26953152 26.44139686 4.77834274 33.44186077 -0.66015625 39.296875 C-4.89699837 42.79395103 -9.86343492 44.95249888 -14.875 47.125 C-15.25720703 46.7125 -15.63941406 46.3 -16.03320312 45.875 C-17.1706462 44.64858725 -18.3092551 43.42325521 -19.44873047 42.19873047 C-20.73806313 40.81069604 -22.02352397 39.41905549 -23.30517578 38.02392578 C-26.63111996 34.42582048 -29.98241058 31.14192475 -33.75 28 C-37.02686594 24.77235737 -37.44615077 22.24815539 -37.625 17.6875 C-37.09772428 9.96603854 -35.26860212 4.0084279 -29.5 -1.3125 C-19.85431215 -8.72120918 -9.54447467 -6.22465739 0 0 Z M-17.75 11.375 C-19.46171395 14.03766614 -20.01236869 16.16170203 -19.5625 19.31640625 C-17.20135331 27.45967922 -13.17419381 35.30592767 -6.875 41.125 C-0.8662811 37.49182113 3.58191035 33.55028377 6 26.8125 C6.61443571 23.51130451 6.35801522 22.46802008 4.4453125 19.65234375 C-0.57013082 14.45958677 -5.21143895 10.49756553 -12.5625 9.75 C-15.78589915 9.85905156 -15.78589915 9.85905156 -17.75 11.375 Z " fill="#3C5362" transform="translate(299.875,13.875)"/>
<path d="M0 0 C4.77147476 3.6571176 7.16572476 7.9521678 7.96484375 13.91015625 C7.69250716 19.89066779 5.1642402 23.80842019 0.96484375 27.91015625 C-3.32323269 30.53064741 -8.14975289 30.46256935 -13.03515625 29.91015625 C-18.39270721 27.98952477 -21.49352841 24.99341193 -24.03515625 19.91015625 C-24.43560893 15.12782708 -24.67314905 10.54058229 -22.91015625 6.03515625 C-16.64423072 -1.06622601 -9.10365619 -4.87508652 0 0 Z " fill="#3C5563" transform="translate(395.03515625,239.08984375)"/>
<path d="M0 0 C7.75379708 -0.11590012 15.50739093 -0.20471759 23.26183701 -0.25906086 C26.86269496 -0.28514472 30.46295992 -0.32051793 34.06347656 -0.37719727 C37.53890041 -0.43156439 41.01375432 -0.46142966 44.48957062 -0.47438622 C46.45952674 -0.48810817 48.42925382 -0.52713486 50.39886475 -0.56648254 C52.20027924 -0.56704903 52.20027924 -0.56704903 54.03808594 -0.56762695 C55.09509705 -0.57873001 56.15210815 -0.58983307 57.2411499 -0.60127258 C60 0 60 0 62.37261963 2.41047668 C64 5 64 5 64 7 C63.34 7 62.68 7 62 7 C61.67 7.99 61.34 8.98 61 10 C60.28082901 10.00586624 59.56165802 10.01173248 58.82069397 10.01777649 C52.00972307 10.07592273 45.19902686 10.14812326 38.38837528 10.23571491 C34.8877656 10.28025108 31.38726781 10.31954269 27.88647461 10.34643555 C23.85241123 10.37766317 19.81895464 10.43244401 15.78515625 10.48828125 C14.54105484 10.49467117 13.29695343 10.5010611 12.01515198 10.50764465 C5.04045187 10.62458926 -0.51777056 11.38457722 -7 14 C-7 13.34 -7 12.68 -7 12 C-7.99 12.33 -8.98 12.66 -10 13 C-10.33 11.68 -10.66 10.36 -11 9 C-10.01 9 -9.02 9 -8 9 C-8.33 7.35 -8.66 5.7 -9 4 C-7.68 3.67 -6.36 3.34 -5 3 C-4.67 3.99 -4.34 4.98 -4 6 C-3.01 7.485 -3.01 7.485 -2 9 C-2.185625 8.38125 -2.37125 7.7625 -2.5625 7.125 C-3 5 -3 5 -2 3 C-1.34 3 -0.68 3 0 3 C0 2.01 0 1.02 0 0 Z " fill="#0149AC" transform="translate(192,47)"/>
<path d="M0 0 C1.66666667 1.66666667 3.33333333 3.33333333 5 5 C5.99 3.35 6.98 1.7 8 0 C10.97 0.99 13.94 1.98 17 3 C16.8125 5.375 16.8125 5.375 16 8 C12.1638484 10.05433255 8.80315089 10.27010818 4.5 10.25 C3.3965625 10.25515625 2.293125 10.2603125 1.15625 10.265625 C-2.0053805 9.99954719 -4.20857564 9.49486113 -7 8 C-7.8125 5.375 -7.8125 5.375 -8 3 C-5.36 2.01 -2.72 1.02 0 0 Z " fill="#3C5361" transform="translate(382,317)"/>
<path d="M0 0 C8.848125 -0.0928125 8.848125 -0.0928125 17.875 -0.1875 C19.71562012 -0.21481201 21.55624023 -0.24212402 23.45263672 -0.27026367 C35.290279 -0.37385883 44.48363664 0.34553382 54 8 C53.01 8.33 52.02 8.66 51 9 C51 8.34 51 7.68 51 7 C48.525 6.505 48.525 6.505 46 6 C46 5.34 46 4.68 46 4 C43.69 4 41.38 4 39 4 C39 3.34 39 2.68 39 2 C26.46 1.67 13.92 1.34 1 1 C1.33 5.29 1.66 9.58 2 14 C2.07962395 16.54210739 2.1303272 19.08555339 2.1328125 21.62890625 C2.13410156 22.93150391 2.13539063 24.23410156 2.13671875 25.57617188 C2.13285156 26.89166016 2.12898438 28.20714844 2.125 29.5625 C2.12886719 30.88185547 2.13273437 32.20121094 2.13671875 33.56054688 C2.12892806 41.4252442 1.80543866 49.17586979 1 57 C0.67 57 0.34 57 0 57 C0 38.19 0 19.38 0 0 Z " fill="#114E9C" transform="translate(287,245)"/>
<path d="M0 0 C0.66 0.33 1.32 0.66 2 1 C0.29374499 3.78388975 -0.47626739 4.85384206 -3.6875 5.75 C-4.8321875 5.87375 -4.8321875 5.87375 -6 6 C-6 6.99 -6 7.98 -6 9 C-4.05396726 9.59070014 -4.05396726 9.59070014 -2 10 C-1.67 9.67 -1.34 9.34 -1 9 C0.66014616 8.63557767 2.32706064 8.30027117 4 8 C-1.47396839 13.91570545 -7.64908596 15.93779938 -15.64208984 16.31445312 C-20.99260541 16.44091951 -26.33730196 16.35004781 -31.6875 16.25 C-33.56443402 16.22989983 -35.44138888 16.2116553 -37.31835938 16.1953125 C-41.87942806 16.15160563 -46.43947988 16.08277384 -51 16 C-51 15.67 -51 15.34 -51 15 C-38.46 15 -25.92 15 -13 15 C-12.34 13.02 -11.68 11.04 -11 9 C-14.63 9 -18.26 9 -22 9 C-22 8.67 -22 8.34 -22 8 C-21.2265625 7.90203125 -20.453125 7.8040625 -19.65625 7.703125 C-12.27412409 6.64331484 -5.47683612 5.47683612 0 0 Z " fill="#0A4A9B" transform="translate(248,306)"/>
<path d="M0 0 C9.57 0 19.14 0 29 0 C29 1.66666667 29 3.33333333 29 5 C19.43 5.33 9.86 5.66 0 6 C0 4.02 0 2.04 0 0 Z M29 2 C31 3 31 3 31 3 Z " fill="#0149AC" transform="translate(199,246)"/>
<path d="M0 0 C1.32 0.66 2.64 1.32 4 2 C3.319375 2.886875 2.63875 3.77375 1.9375 4.6875 C-0.27973407 7.7673472 -0.27973407 7.7673472 0.1875 10.8125 C0.80706046 12.94594536 0.80706046 12.94594536 2 14 C2 12.68 2 11.36 2 10 C2.66 10 3.32 10 4 10 C4.33 9.34 4.66 8.68 5 8 C5.66 8 6.32 8 7 8 C7.33 7.01 7.66 6.02 8 5 C8.495 5.99 8.495 5.99 9 7 C6.8272631 11.58358196 3.78699616 15.63378119 0 19 C-0.66 18.67 -1.32 18.34 -2 18 C-2.625 15.4375 -2.625 15.4375 -3 13 C-7.89562693 14.87702327 -7.89562693 14.87702327 -12 18 C-14.98095703 18.13525391 -14.98095703 18.13525391 -18.7578125 17.9765625 C-19.42086395 17.95153656 -20.08391541 17.92651062 -20.76705933 17.90072632 C-22.88689015 17.81848733 -25.00579437 17.72191635 -27.125 17.625 C-28.56115994 17.56676418 -29.99735802 17.50946081 -31.43359375 17.453125 C-34.95623602 17.31290458 -38.4781866 17.159824 -42 17 C-42 16.67 -42 16.34 -42 16 C-40.79839233 15.98598145 -40.79839233 15.98598145 -39.57250977 15.97167969 C-35.90190881 15.91761061 -32.23253238 15.8340326 -28.5625 15.75 C-27.30244141 15.73582031 -26.04238281 15.72164063 -24.74414062 15.70703125 C-17.60811336 15.520712 -11.01808642 15.21188308 -5 11 C-2.33743623 7.80772864 -0.65930625 4.12066409 0 0 Z " fill="#0E4998" transform="translate(338,274)"/>
<path d="M0 0 C0.66 0.33 1.32 0.66 2 1 C2.08948558 5.47427924 1.85743651 9.60563789 1 14 C3.97 14.495 3.97 14.495 7 15 C7.33 14.34 7.66 13.68 8 13 C7.36245056 18.41917024 5.19105152 22.17765541 0.98046875 25.6796875 C-3.68363987 29.0009778 -7.26593961 30.75599743 -13 31 C-10 29 -10 29 -7 29 C-7 28.01 -7 27.02 -7 26 C-5.68 26 -4.36 26 -3 26 C-3 25.34 -3 24.68 -3 24 C-2.360625 23.87625 -1.72125 23.7525 -1.0625 23.625 C-0.381875 23.41875 0.29875 23.2125 1 23 C1.33 22.34 1.66 21.68 2 21 C1.34 21 0.68 21 0 21 C0.33 20.34 0.66 19.68 1 19 C-1.6905528 20.22007944 -1.6905528 20.22007944 -4 22 C-5.66617115 22.04063832 -7.33388095 22.042721 -9 22 C-8.236875 21.278125 -7.47375 20.55625 -6.6875 19.8125 C-2.35036424 15.273637 -0.65848993 11.98451673 -0.3125 5.6875 C-0.24675781 4.61886719 -0.18101562 3.55023438 -0.11328125 2.44921875 C-0.07589844 1.64097656 -0.03851563 0.83273437 0 0 Z " fill="#0E489C" transform="translate(482,266)"/>
<path d="M0 0 C6.63113031 1.61734885 10.99105406 5.3004789 15 10.6875 C16 13 16 13 15 16 C14.34 14.68 13.68 13.36 13 12 C12.01 12 11.02 12 10 12 C9.7525 11.030625 9.505 10.06125 9.25 9.0625 C8.63125 7.5465625 8.63125 7.5465625 8 6 C5.96756452 5.03122943 5.96756452 5.03122943 4 5 C4.95865509 7.33075929 4.95865509 7.33075929 8 9 C7.814375 9.53625 7.62875 10.0725 7.4375 10.625 C6.88580676 13.61990614 7.39402556 16.03745829 8 19 C7.34 18.01 6.68 17.02 6 16 C2.17824011 10.60457427 -0.67540345 8.92953793 -7 7 C-7 6.67 -7 6.34 -7 6 C-3.535 5.505 -3.535 5.505 0 5 C0 4.01 0 3.02 0 2 C0 1.34 0 0.68 0 0 Z " fill="#0B479A" transform="translate(474,247)"/>
<path d="M0 0 C4.39772429 3.4878503 5.85672788 7.66473013 7 13 C7.21685281 16.05439496 7.14610431 18.93180953 7 22 C6.67 22 6.34 22 6 22 C6 19.36 6 16.72 6 14 C5.01 14.33 4.02 14.66 3 15 C3 14.01 3 13.02 3 12 C1.68 12.33 0.36 12.66 -1 13 C-1 12.01 -1 11.02 -1 10 C-0.34 10 0.32 10 1 10 C0.67 8.68 0.34 7.36 0 6 C-0.66 8.97 -1.32 11.94 -2 15 C-3.49403054 12.01193893 -4.79310745 9.10343799 -6 6 C-4.68 6 -3.36 6 -2 6 C-2 4.35 -2 2.7 -2 1 C-1.34 0.67 -0.68 0.34 0 0 Z " fill="#0C499D" transform="translate(341,254)"/>
<path d="M0 0 C5.61 0 11.22 0 17 0 C17.11483164 4.50395214 17.21433127 9.00282982 17.2746582 13.50708008 C17.29980078 15.03883061 17.33392047 16.57046117 17.37719727 18.10180664 C17.43786942 20.30384884 17.46620891 22.50430574 17.48828125 24.70703125 C17.51408768 25.39150833 17.5398941 26.07598541 17.56648254 26.78120422 C17.56762695 28.72192383 17.56762695 28.72192383 17 32 C14.46948242 33.95581055 14.46948242 33.95581055 12 35 C12 33.35 12 31.7 12 30 C12.99 29.67 13.98 29.34 15 29 C15 20.42 15 11.84 15 3 C11.98509443 1.99503148 9.95818308 1.89664697 6.8125 1.9375 C4.4303125 1.9684375 4.4303125 1.9684375 2 2 C1.67 7.94 1.34 13.88 1 20 C0.67 20 0.34 20 0 20 C0 13.4 0 6.8 0 0 Z " fill="#3C4B55" transform="translate(61,282)"/>
<path d="M0 0 C3.0916909 2.52956528 3.90931332 5.22454612 5 9 C4.34 9 3.68 9 3 9 C3 8.34 3 7.68 3 7 C1.35 7.33 -0.3 7.66 -2 8 C-1.67 8.66 -1.34 9.32 -1 10 C-0.91573906 11.6674606 -0.89274857 13.33825187 -0.90234375 15.0078125 C-0.90556641 15.99394531 -0.90878906 16.98007812 -0.91210938 17.99609375 C-0.92048828 19.02863281 -0.92886719 20.06117188 -0.9375 21.125 C-0.94201172 22.16527344 -0.94652344 23.20554687 -0.95117188 24.27734375 C-0.96298048 26.85161962 -0.97944925 29.42578146 -1 32 C-1.66 32 -2.32 32 -3 32 C-2.96519531 30.88882812 -2.93039062 29.77765625 -2.89453125 28.6328125 C-2.71405211 20.26967213 -2.75017272 12.87309348 -6 5 C-4.02 4.01 -2.04 3.02 0 2 C0 1.34 0 0.68 0 0 Z " fill="#0C4799" transform="translate(260,261)"/>
<path d="M0 0 C9.24 0 18.48 0 28 0 C28.33 0.66 28.66 1.32 29 2 C24.99908596 2.74984705 21.23250483 3.1195296 17.1640625 3.09765625 C16.10058594 3.09443359 15.03710938 3.09121094 13.94140625 3.08789062 C12.84699219 3.07951172 11.75257813 3.07113281 10.625 3.0625 C9.50738281 3.05798828 8.38976562 3.05347656 7.23828125 3.04882812 C4.49213196 3.03709244 1.74609414 3.02067363 -1 3 C-0.67 2.01 -0.34 1.02 0 0 Z " fill="#394E5D" transform="translate(241,192)"/>
<path d="M0 0 C0.33 0 0.66 0 1 0 C1.02505615 0.62044189 1.0501123 1.24088379 1.07592773 1.88012695 C1.19196721 4.69112397 1.31465759 7.50179241 1.4375 10.3125 C1.47681641 11.28896484 1.51613281 12.26542969 1.55664062 13.27148438 C1.59853516 14.20927734 1.64042969 15.14707031 1.68359375 16.11328125 C1.72025146 16.97735596 1.75690918 17.84143066 1.79467773 18.73168945 C1.92747354 21.1647826 1.92747354 21.1647826 3 24 C6.04213267 25.52106634 9.28047572 25.37429338 12.625 25.5625 C13.33140625 25.60568359 14.0378125 25.64886719 14.765625 25.69335938 C16.51018537 25.79944751 18.25506697 25.90022889 20 26 C20 30.29 20 34.58 20 39 C14.39 39 8.78 39 3 39 C3 38.67 3 38.34 3 38 C7.95 37.67 12.9 37.34 18 37 C18.33 33.7 18.66 30.4 19 27 C17.87980469 27.04640625 16.75960938 27.0928125 15.60546875 27.140625 C14.13283915 27.17814423 12.66018073 27.21454423 11.1875 27.25 C10.44951172 27.28351563 9.71152344 27.31703125 8.95117188 27.3515625 C6.79296875 27.390625 6.79296875 27.390625 3 27 C0.80191743 24.84438039 0.06600901 23.49722052 -0.34057617 20.43457031 C-0.32486572 19.49194336 -0.30915527 18.54931641 -0.29296875 17.578125 C-0.28330078 16.55332031 -0.27363281 15.52851562 -0.26367188 14.47265625 C-0.23853516 13.40917969 -0.21339844 12.34570312 -0.1875 11.25 C-0.17396484 10.17105469 -0.16042969 9.09210938 -0.14648438 7.98046875 C-0.11116584 5.3198058 -0.06184199 2.66015704 0 0 Z " fill="#164A92" transform="translate(275,69)"/>
<path d="M0 0 C0.66 0 1.32 0 2 0 C2.08738991 4.37487331 2.140524 8.74952078 2.1875 13.125 C2.22520508 14.98125 2.22520508 14.98125 2.26367188 16.875 C2.27817383 18.67324219 2.27817383 18.67324219 2.29296875 20.5078125 C2.31653442 22.15740967 2.31653442 22.15740967 2.34057617 23.84033203 C1.94709631 27.49080976 0.89011106 29.86986888 -1 33 C-3.1875 34.375 -3.1875 34.375 -5 35 C-5.495 33.515 -5.495 33.515 -6 32 C-7.485 32.495 -7.485 32.495 -9 33 C-9 32.01 -9 31.02 -9 30 C-4.375 27.875 -4.375 27.875 -1 29 C-0.1589522 25.3535194 0.11764968 22.00049093 0.09765625 18.26171875 C0.09282227 16.66166992 0.09282227 16.66166992 0.08789062 15.02929688 C0.07951172 13.92650391 0.07113281 12.82371094 0.0625 11.6875 C0.05798828 10.56537109 0.05347656 9.44324219 0.04882812 8.28710938 C0.03707313 5.5246849 0.02064077 2.76237002 0 0 Z " fill="#114892" transform="translate(253,115)"/>
<path d="M0 0 C0.33 0.66 0.66 1.32 1 2 C-3.455 2.495 -3.455 2.495 -8 3 C-8 6.3 -8 9.6 -8 13 C-3.05 12.34 1.9 11.68 7 11 C4 14 4 14 0.64453125 14.29296875 C-0.62003906 14.25816406 -1.88460937 14.22335938 -3.1875 14.1875 C-4.45980469 14.16042969 -5.73210937 14.13335937 -7.04296875 14.10546875 C-8.01878906 14.07066406 -8.99460938 14.03585938 -10 14 C-10 9.71 -10 5.42 -10 1 C-6.7 0.67 -3.4 0.34 0 0 Z " fill="#1A4D93" transform="translate(241,139)"/>
<path d="M0 0 C0 3.51387611 -0.96274845 5.32489752 -2.4375 8.5 C-4.97395436 14.37540275 -5.86216295 19.63443458 -6 26 C-6.66 26 -7.32 26 -8 26 C-8.62583262 17.12708413 -8.11671339 10.46607757 -3 3 C-2.0311019 1.96983668 -1.04033788 0.95796508 0 0 Z " fill="#114894" transform="translate(179,53)"/>
<path d="M0 0 C5.17781223 -0.02477057 10.35558975 -0.04289347 15.53344727 -0.05493164 C17.29387005 -0.0599517 19.05428868 -0.0667691 20.81469727 -0.07543945 C23.34913154 -0.08760703 25.88351054 -0.09325166 28.41796875 -0.09765625 C29.20149216 -0.10281754 29.98501556 -0.10797882 30.7922821 -0.11329651 C34.65591139 -0.11369066 38.245165 0.0555724 42 1 C42 1.33 42 1.66 42 2 C40.56359829 2.19573608 39.12580496 2.38127816 37.6875 2.5625 C36.88699219 2.66691406 36.08648437 2.77132812 35.26171875 2.87890625 C33 3 33 3 30 2 C27.79040747 1.84890907 25.57699953 1.75126199 23.36328125 1.68359375 C21.41518555 1.62075195 21.41518555 1.62075195 19.42773438 1.55664062 C18.05599239 1.51683013 16.68424756 1.47711784 15.3125 1.4375 C13.92902355 1.39429165 12.54555973 1.35067661 11.16210938 1.30664062 C7.77484281 1.20041972 4.38750201 1.09837642 1 1 C0.67 1.66 0.34 2.32 0 3 C0 2.01 0 1.02 0 0 Z " fill="#1252A8" transform="translate(431,245)"/>
<path d="M0 0 C0.99 0.33 1.98 0.66 3 1 C3 1.99 3 2.98 3 4 C4.32 4.33 5.64 4.66 7 5 C6.67 6.65 6.34 8.3 6 10 C4.02 9.34 2.04 8.68 0 8 C0 7.34 0 6.68 0 6 C-0.66 5.67 -1.32 5.34 -2 5 C-2 2 -2 2 0 0 Z " fill="#0349AE" transform="translate(247,251)"/>
<path d="M0 0 C0.66 0.33 1.32 0.66 2 1 C0.20963542 1.9765625 -1.58072917 2.953125 -3.37109375 3.9296875 C-5.16618315 4.91410024 -5.16618315 4.91410024 -6 7 C-5.01 6.67 -4.02 6.34 -3 6 C-3 9 -3 9 -4 11 C-4.556875 10.608125 -5.11375 10.21625 -5.6875 9.8125 C-6.450625 9.544375 -7.21375 9.27625 -8 9 C-10.74832154 10.28184562 -10.74832154 10.28184562 -13 12 C-11.64891639 8.90989789 -10.20982067 7.03089847 -7.625 4.875 C-7.03976562 4.37742188 -6.45453125 3.87984375 -5.8515625 3.3671875 C-3.95143888 1.96414264 -2.19508738 0.8762283 0 0 Z " fill="#394E5B" transform="translate(375,228)"/>
<path d="M0 0 C7.22802931 0.34974335 12.89477028 2.00678737 19 6 C19.99 7.485 19.99 7.485 21 9 C20.01 9 19.02 9 18 9 C18 8.34 18 7.68 18 7 C15.525 6.505 15.525 6.505 13 6 C13 5.34 13 4.68 13 4 C10.69 4 8.38 4 6 4 C6 3.34 6 2.68 6 2 C4.35 2 2.7 2 1 2 C0.67 1.34 0.34 0.68 0 0 Z " fill="#114995" transform="translate(320,245)"/>
<path d="M0 0 C1.65 0 3.3 0 5 0 C5 4.29 5 8.58 5 13 C-0.61 13 -6.22 13 -12 13 C-12 12.67 -12 12.34 -12 12 C-7.05 11.67 -2.1 11.34 3 11 C3.33 7.7 3.66 4.4 4 1 C2.68 0.67 1.36 0.34 0 0 Z " fill="#214E90" transform="translate(290,95)"/>
<path d="M0 0 C8.91 0 17.82 0 27 0 C27 0.33 27 0.66 27 1 C21.06 1.33 15.12 1.66 9 2 C9 2.33 9 2.66 9 3 C6.36 3 3.72 3 1 3 C0.67 2.01 0.34 1.02 0 0 Z " fill="#384A56" transform="translate(77,186)"/>
<path d="M0 0 C1.98 0.495 1.98 0.495 4 1 C4 1.66 4 2.32 4 3 C4.66 2.34 5.32 1.68 6 1 C8.625 1.375 8.625 1.375 11 2 C10.34 3.65 9.68 5.3 9 7 C9.66 7 10.32 7 11 7 C11 7.66 11 8.32 11 9 C8.13132769 7.61735163 5.43975968 6.07851447 2.75 4.375 C2.04359375 3.92898437 1.3371875 3.48296875 0.609375 3.0234375 C0.07828125 2.68570313 -0.4528125 2.34796875 -1 2 C-0.67 1.34 -0.34 0.68 0 0 Z " fill="#364A54" transform="translate(339,119)"/>
<path d="M0 0 C2 2 2 2 2.125 5.125 C2.08375 6.07375 2.0425 7.0225 2 8 C3.98 8.99 5.96 9.98 8 11 C7.01 11.33 6.02 11.66 5 12 C1.16249025 9.84140076 -1.61239881 7.71404629 -4 4 C-3.34 4 -2.68 4 -2 4 C-1.34 2.68 -0.68 1.36 0 0 Z " fill="#0B4799" transform="translate(182,87)"/>
<path d="M0 0 C3.65528338 0.58225753 6.46152146 1.56757569 9.6875 3.375 C10.83798828 4.00535156 10.83798828 4.00535156 12.01171875 4.6484375 C14 6 14 6 16 9 C13.03 8.505 13.03 8.505 10 8 C10 7.01 10 6.02 10 5 C6.7 4.34 3.4 3.68 0 3 C0 2.01 0 1.02 0 0 Z " fill="#104891" transform="translate(240,247)"/>
<path d="M0 0 C4.75 -0.125 4.75 -0.125 7 1 C9.71262116 1.2322646 12.40773126 1.41936235 15.125 1.5625 C16.25615234 1.62727539 16.25615234 1.62727539 17.41015625 1.69335938 C19.27321888 1.7994832 21.13658524 1.90025001 23 2 C23 2.33 23 2.66 23 3 C15.08 3 7.16 3 -1 3 C-0.67 2.01 -0.34 1.02 0 0 Z " fill="#354652" transform="translate(241,192)"/>
<path d="M0 0 C0 3 0 3 -1.64453125 4.7890625 C-2.35996094 5.39492187 -3.07539063 6.00078125 -3.8125 6.625 C-4.52019531 7.23601562 -5.22789062 7.84703125 -5.95703125 8.4765625 C-8 10 -8 10 -11 11 C-11 10.34 -11 9.68 -11 9 C-10.34 9 -9.68 9 -9 9 C-8.91878906 8.39671875 -8.83757812 7.7934375 -8.75390625 7.171875 C-7.76334726 4.31824391 -6.52557989 3.72890279 -3.9375 2.25 C-3.20402344 1.82203125 -2.47054688 1.3940625 -1.71484375 0.953125 C-1.14894531 0.63859375 -0.58304687 0.3240625 0 0 Z " fill="#3C4E57" transform="translate(361,188)"/>
<path d="M0 0 C1.32 0.33 2.64 0.66 4 1 C3.360625 1.78375 2.72125 2.5675 2.0625 3.375 C-1.00784614 7.28271326 -1.11491986 9.19753354 -1.0625 14.125 C-1.05347656 15.22070312 -1.04445312 16.31640625 -1.03515625 17.4453125 C-1.02355469 18.28835937 -1.01195312 19.13140625 -1 20 C-3.6618004 17.3381996 -3.29866602 15.95750737 -3.3125 12.25 C-3.24679051 7.27997339 -2.74674319 4.12011479 0 0 Z " fill="#104892" transform="translate(186,60)"/>
<path d="M0 0 C0.87398437 0.2165625 0.87398437 0.2165625 1.765625 0.4375 C8.58340445 1.98114818 15.02694354 2.21566154 22 2 C16.44694515 5.70203656 9.68385633 4.25638675 3.375 3 C1.91446806 2.676436 0.45519675 2.34677029 -1 2 C-0.67 1.34 -0.34 0.68 0 0 Z " fill="#3B4C57" transform="translate(34,305)"/>
<path d="M0 0 C2.97 0.99 5.94 1.98 9 3 C8.67 4.65 8.34 6.3 8 8 C6.68 8.33 5.36 8.66 4 9 C5.32 7.35 6.64 5.7 8 4 C5.36 4 2.72 4 0 4 C0 2.68 0 1.36 0 0 Z " fill="#384C56" transform="translate(390,317)"/>
<path d="M0 0 C3.7952131 1.49097658 5.61042731 3.75700849 8 7 C7.67 7.66 7.34 8.32 7 9 C6.01 8.34 5.02 7.68 4 7 C4 7.66 4 8.32 4 9 C3.34 9 2.68 9 2 9 C2 7.68 2 6.36 2 5 C0.5833253 3.2488427 0.5833253 3.2488427 -1 2 C-0.67 1.34 -0.34 0.68 0 0 Z " fill="#0D4998" transform="translate(242,95)"/>
<path d="M0 0 C1.9375 0.8125 1.9375 0.8125 4 2 C4.33 2.99 4.66 3.98 5 5 C2.69 5.66 0.38 6.32 -2 7 C-2.6875 5.1875 -2.6875 5.1875 -3 3 C-1.5625 1.25 -1.5625 1.25 0 0 Z " fill="#0349AE" transform="translate(256,259)"/>
<path d="M0 0 C0 1.32 0 2.64 0 4 C3.3 4 6.6 4 10 4 C10 4.33 10 4.66 10 5 C4.72 5 -0.56 5 -6 5 C-6 4.01 -6 3.02 -6 2 C-3 0 -3 0 0 0 Z " fill="#394D59" transform="translate(144,200)"/>
<path d="M0 0 C6.93 0.99 13.86 1.98 21 3 C21 3.33 21 3.66 21 4 C13.31604457 4.2137731 6.43659188 4.01670288 -1 2 C-0.67 1.34 -0.34 0.68 0 0 Z " fill="#364954" transform="translate(308,203)"/>
<path d="M0 0 C0.66 0.66 1.32 1.32 2 2 C1.67 2.66 1.34 3.32 1 4 C0.34 4 -0.32 4 -1 4 C-0.814375 4.5775 -0.62875 5.155 -0.4375 5.75 C0.04023546 8.20692525 -0.24270636 9.64397534 -1 12 C-2.32 12 -3.64 12 -5 12 C-4.54738642 10.56068883 -4.08767021 9.12361001 -3.625 7.6875 C-3.24214844 6.48673828 -3.24214844 6.48673828 -2.8515625 5.26171875 C-2 3 -2 3 0 0 Z " fill="#3C4D58" transform="translate(277,126)"/>
<path d="M0 0 C1.15628906 0.18046875 2.31257813 0.3609375 3.50390625 0.546875 C6.4375 1.25 6.4375 1.25 8.4375 3.25 C2.07762196 3.45190089 -3.41471129 2.8777833 -9.5625 1.25 C-5.7629993 -1.28300047 -4.41668302 -0.73035652 0 0 Z " fill="#394853" transform="translate(41.5625,320.75)"/>
<path d="M0 0 C4.568513 2.21899203 7.80866853 5.40863882 10 10 C9.67 10.99 9.34 11.98 9 13 C8.34 11.68 7.68 10.36 7 9 C6.01 9 5.02 9 4 9 C3.71125 8.030625 3.4225 7.06125 3.125 6.0625 C2.35785318 2.89335797 2.35785318 2.89335797 0 2 C0 1.34 0 0.68 0 0 Z " fill="#11468F" transform="translate(480,250)"/>
<path d="M0 0 C1.98 0 3.96 0 6 0 C4.68 1.32 3.36 2.64 2 4 C2.99 5.32 3.98 6.64 5 8 C4.67 8.66 4.34 9.32 4 10 C2.68 9.67 1.36 9.34 0 9 C0 6 0 3 0 0 Z " fill="#0A4B96" transform="translate(330,293)"/>
<path d="M0 0 C3.8263442 1.55888097 6.14637496 4.07127956 9 7 C9.66 7.33 10.32 7.66 11 8 C11 8.66 11 9.32 11 10 C6.23439379 8.59835111 3.04117557 5.84588526 0 2 C0 1.34 0 0.68 0 0 Z " fill="#3D4C55" transform="translate(12,307)"/>
<path d="M0 0 C3.46941546 0.45822468 6.67395049 0.89131683 10 2 C10 2.66 10 3.32 10 4 C9.21625 4.144375 8.4325 4.28875 7.625 4.4375 C5.03578982 4.87798925 5.03578982 4.87798925 3 6 C2.34 5.34 1.68 4.68 1 4 C1.66 3.67 2.32 3.34 3 3 C2.01 2.01 1.02 1.02 0 0 Z " fill="#394D5A" transform="translate(335,103)"/>
<path d="M0 0 C4.99911924 0.47610659 7.97832683 2.03162219 12 5 C11.38125 5.144375 10.7625 5.28875 10.125 5.4375 C7.96741678 5.93152225 7.96741678 5.93152225 6 7 C6 6.01 6 5.02 6 4 C4.02 3.01 2.04 2.02 0 1 C0 0.67 0 0.34 0 0 Z " fill="#104799" transform="translate(230,89)"/>
<path d="M0 0 C0.33 0 0.66 0 1 0 C1.36444983 4.25191465 0.56111503 6.58517997 -2 10 C-2.99 10.33 -3.98 10.66 -5 11 C-3.55049545 7.2089881 -1.84827434 3.6125362 0 0 Z " fill="#104998" transform="translate(256,295)"/>
<path d="M0 0 C4.16138263 -0.08159574 7.9472484 0.01751476 12 1 C12 1.33 12 1.66 12 2 C10.56359829 2.19573608 9.12580496 2.38127816 7.6875 2.5625 C6.88699219 2.66691406 6.08648437 2.77132812 5.26171875 2.87890625 C3 3 3 3 0 2 C0 1.34 0 0.68 0 0 Z " fill="#0F499A" transform="translate(461,245)"/>
<path d="M0 0 C0 3.13751221 -0.35179805 4.39757586 -2 7 C-2.99 7.33 -3.98 7.66 -5 8 C-5.99 7.34 -6.98 6.68 -8 6 C-5.36 4.02 -2.72 2.04 0 0 Z " fill="#374750" transform="translate(347,181)"/>
<path d="M0 0 C2.475 0.99 2.475 0.99 5 2 C5 4.31 5 6.62 5 9 C2.87961365 6.38485683 0.86908256 3.80362384 -1 1 C-0.67 0.67 -0.34 0.34 0 0 Z " fill="#3E4E5A" transform="translate(351,128)"/>
<path d="M0 0 C1.32 0.33 2.64 0.66 4 1 C2.73760288 1.86658615 1.46472499 2.71792059 0.1875 3.5625 C-0.87404297 4.27599609 -0.87404297 4.27599609 -1.95703125 5.00390625 C-4 6 -4 6 -7 5 C-4 3 -4 3 -1 3 C-0.67 2.01 -0.34 1.02 0 0 Z " fill="#0F498D" transform="translate(248,314)"/>
<path d="M0 0 C0.33 0.66 0.66 1.32 1 2 C-0.21484375 4.6015625 -0.21484375 4.6015625 -1.9375 7.625 C-2.78634766 9.12933594 -2.78634766 9.12933594 -3.65234375 10.6640625 C-4.09707031 11.43492187 -4.54179687 12.20578125 -5 13 C-6 10 -6 10 -4.75 7.0625 C-3.30257116 4.52949952 -1.82887547 2.26432201 0 0 Z " fill="#384B55" transform="translate(406,281)"/>
<path d="M0 0 C0.95651196 2.58258228 1.03620881 3.8650399 0.3125 6.5625 C-1.12035293 9.22351258 -2.47085828 10.39821025 -5 12 C-3.41037341 7.96479403 -1.71767682 3.98188718 0 0 Z " fill="#364A54" transform="translate(357,166)"/>
<path d="M0 0 C1.46300982 0.93018526 2.92025579 1.86944027 4.375 2.8125 C5.18710938 3.33457031 5.99921875 3.85664062 6.8359375 4.39453125 C9 6 9 6 11 9 C7.16713064 8.45244723 5.59901736 6.7666959 3 4 C2.01 3.34 1.02 2.68 0 2 C0 1.34 0 0.68 0 0 Z " fill="#3B4A55" transform="translate(192,107)"/>
<path d="M0 0 C1.02104551 0.97850195 2.0206121 1.97980427 3 3 C3 3.33 3 3.66 3 4 C-0.3 4 -3.6 4 -7 4 C-5 2 -5 2 -2.375 1.875 C-1.59125 1.91625 -0.8075 1.9575 0 2 C0 1.34 0 0.68 0 0 Z " fill="#0B4C9A" transform="translate(346,318)"/>
<path d="M0 0 C0.66 0.99 1.32 1.98 2 3 C0.8125 4.5 0.8125 4.5 -1 6 C-3.6875 6.1875 -3.6875 6.1875 -6 6 C-4 4 -2 2 0 0 Z " fill="#104996" transform="translate(479,282)"/>
<path d="M0 0 C3.01327566 1.50663783 3.61056618 4.03166411 5 7 C4.01 7.99 3.02 8.98 2 10 C1.34 6.7 0.68 3.4 0 0 Z " fill="#374B56" transform="translate(155,273)"/>
<path d="M0 0 C3.78717347 1.48781815 5.77407001 3.61988409 8 7 C7.67 7.99 7.34 8.98 7 10 C5.83043409 8.52312468 4.66441854 7.04343707 3.5 5.5625 C2.8503125 4.73878906 2.200625 3.91507813 1.53125 3.06640625 C0 1 0 1 0 0 Z " fill="#3C4D58" transform="translate(192,126)"/>
<path d="M0 0 C1.32 0.66 2.64 1.32 4 2 C2.625 4.5 2.625 4.5 1 7 C0.34 7 -0.32 7 -1 7 C-0.67 4.69 -0.34 2.38 0 0 Z " fill="#084398" transform="translate(338,274)"/>
<path d="M0 0 C-3.63 1.32 -7.26 2.64 -11 4 C-11 3.01 -11 2.02 -11 1 C-4.5 -1.125 -4.5 -1.125 0 0 Z " fill="#3B4C57" transform="translate(159,118)"/>
<path d="M0 0 C3.57104439 1.87949705 5.54744301 3.17053157 7 7 C6.01 7.495 6.01 7.495 5 8 C5 7.34 5 6.68 5 6 C4.34 5.67 3.68 5.34 3 5 C1.375 3.5625 1.375 3.5625 0 2 C0 1.34 0 0.68 0 0 Z " fill="#3B4A53" transform="translate(72,251)"/>
<path d="M0 0 C1.32 0 2.64 0 4 0 C4 0.99 4 1.98 4 3 C2.35 2.67 0.7 2.34 -1 2 C-0.67 1.34 -0.34 0.68 0 0 Z " fill="#434E56" transform="translate(95,202)"/>
<path d="M0 0 C2.475 0.495 2.475 0.495 5 1 C4.67 1.66 4.34 2.32 4 3 C2.68 3 1.36 3 0 3 C0 2.01 0 1.02 0 0 Z " fill="#31384A" transform="translate(247,200)"/>
<path d="" fill="#395555" transform="translate(0,0)"/>
<path d="" fill="#393955" transform="translate(0,0)"/>
<path d="" fill="#244949" transform="translate(0,0)"/>
</svg>
