<?xml version="1.0" encoding="UTF-8"?>
<svg version="1.1" xmlns="http://www.w3.org/2000/svg" width="359" height="250">
<path d="M0 0 C11.20713267 9.14787154 17.87526567 22.62752383 19.375 36.875 C20.61775428 50.63406523 16.7559264 63.73341058 8.265625 74.56640625 C-0.84849354 85.11049856 -12.40540362 93.33655835 -26.625 94.875 C-38.26699874 95.36929715 -38.26699874 95.36929715 -42.99906921 94.37733459 C-45.67657171 93.86513445 -48.15062318 93.71698669 -50.87426758 93.66967773 C-51.89494827 93.64973251 -52.91562897 93.62978729 -53.96723938 93.60923767 C-55.0569957 93.59252518 -56.14675201 93.57581268 -57.26953125 93.55859375 C-58.95691658 93.5274221 -58.95691658 93.5274221 -60.6783905 93.49562073 C-64.2646994 93.43034208 -67.85108027 93.37134101 -71.4375 93.3125 C-73.87175217 93.26929417 -76.30599712 93.22567922 -78.74023438 93.18164062 C-84.70174728 93.0746829 -90.66333146 92.9728765 -96.625 92.875 C-96.625 91.885 -96.625 90.895 -96.625 89.875 C-84.415 89.545 -72.205 89.215 -59.625 88.875 C-63.82534171 85.7009599 -63.82534171 85.7009599 -68.57714844 85.44262695 C-69.55786316 85.42283279 -70.53857788 85.40303864 -71.54901123 85.38264465 C-73.1257663 85.37305977 -73.1257663 85.37305977 -74.734375 85.36328125 C-76.35729462 85.33635445 -76.35729462 85.33635445 -78.01300049 85.30888367 C-81.46696074 85.25472364 -84.92078235 85.22086597 -88.375 85.1875 C-90.71746723 85.15433204 -93.05991616 85.11984287 -95.40234375 85.08398438 C-101.14310484 84.99899389 -106.88388375 84.93066801 -112.625 84.875 C-112.625 83.885 -112.625 82.895 -112.625 81.875 C-98.765 81.545 -84.905 81.215 -70.625 80.875 C-71.285 79.555 -71.945 78.235 -72.625 76.875 C-89.125 76.875 -105.625 76.875 -122.625 76.875 C-122.955 75.885 -123.285 74.895 -123.625 73.875 C-100.855 73.38 -100.855 73.38 -77.625 72.875 C-79.935 68.255 -82.245 63.635 -84.625 58.875 C-88.84297312 46.0376905 -87.90976443 30.34934345 -81.890625 18.26953125 C-74.49713856 4.28607828 -64.2529529 -4.17124937 -49.23046875 -9.3984375 C-31.85352426 -14.24418214 -14.47244983 -10.34099834 0 0 Z M-62.375 17.75390625 C-70.30685783 27.56958031 -71.6706965 37.62356812 -70.625 49.875 C-70.05224648 52.89023959 -69.15765222 55.22611427 -67.625 57.875 C-67.00431641 58.97714844 -67.00431641 58.97714844 -66.37109375 60.1015625 C-60.62565912 69.46333336 -53.22079998 75.17863327 -42.76953125 78.45703125 C-32.34894838 80.48800095 -22.52511679 78.88584527 -13.4140625 73.58984375 C-4.26514978 67.29777542 1.09684377 58.68268162 3.375 47.875 C4.62166973 36.69747257 2.25337657 27.2853779 -4.4765625 18.26953125 C-11.3622286 10.5951434 -19.64095056 5.53105221 -29.91015625 4.56640625 C-43.15960635 4.0906371 -53.30532477 8.01615226 -62.375 17.75390625 Z " fill="#3C5462" transform="translate(142.625,130.125)"/>
<path d="M0 0 C1.84171492 1.3570531 3.65807187 2.74974394 5.4375 4.1875 C6.10136719 4.72117188 6.76523437 5.25484375 7.44921875 5.8046875 C17.23110932 14.64136168 23.01982457 26.84988158 23.74609375 39.86328125 C24.36198924 57.39210074 20.13226928 70.51275404 8.2734375 83.5703125 C-2.76503135 94.12710271 -16.96122619 98.46490908 -31.96875 98.5859375 C-35.1965933 98.22806792 -37.94161712 97.56226181 -41.05761719 96.69458008 C-47.18910396 95.14088761 -52.93058642 94.71655097 -59.234375 94.67578125 C-60.28280579 94.65783005 -61.33123657 94.63987885 -62.41143799 94.62138367 C-65.71175283 94.56783914 -69.01192786 94.53356596 -72.3125 94.5 C-74.57033174 94.46677753 -76.82814514 94.43228343 -79.0859375 94.39648438 C-84.57799931 94.31214593 -90.07008057 94.24356376 -95.5625 94.1875 C-95.0675 92.7025 -95.0675 92.7025 -94.5625 91.1875 C-82.3525 90.8575 -70.1425 90.5275 -57.5625 90.1875 C-62.48590661 87.15070527 -62.48590661 87.15070527 -67.62817383 86.75512695 C-68.60881302 86.73533279 -69.58945221 86.71553864 -70.59980774 86.69514465 C-71.6458165 86.68875473 -72.69182526 86.68236481 -73.76953125 86.67578125 C-75.39032845 86.64885445 -75.39032845 86.64885445 -77.04386902 86.62138367 C-80.48753992 86.56729737 -83.93107232 86.53338955 -87.375 86.5 C-89.71290989 86.46682553 -92.05080151 86.43233576 -94.38867188 86.39648438 C-100.11315706 86.31157181 -105.8376602 86.24321469 -111.5625 86.1875 C-111.2325 85.1975 -110.9025 84.2075 -110.5625 83.1875 C-96.3725 82.8575 -82.1825 82.5275 -67.5625 82.1875 C-70.5325 78.2275 -73.5025 74.2675 -76.5625 70.1875 C-78.13694195 66.40883933 -79.49072833 63.06629271 -80.5625 59.1875 C-80.73612061 58.56738037 -80.90974121 57.94726074 -81.08862305 57.30834961 C-84.18286388 43.45998788 -81.4871718 28.39298571 -74.3125 16.375 C-65.66056433 3.74537357 -54.51990395 -4.08968825 -39.5390625 -7.15234375 C-25.90714102 -9.57891722 -11.71750036 -7.54314086 0 0 Z M-59.1015625 23.12109375 C-64.50152885 30.58262361 -68.00836092 39.85512498 -66.5625 49.1875 C-64.15595059 60.30346633 -59.94605688 69.2385889 -50.6875 76.125 C-41.28303165 82.10325275 -32.70311882 83.2683063 -21.5625 82.1875 C-10.37176043 79.32372806 -2.10635201 72.29440737 4.078125 62.71484375 C9.00186352 53.56065174 9.51533587 44.52627491 6.8125 34.6875 C4.90330336 28.90650599 2.6217175 24.59552448 -1.5625 20.1875 C-2.13742187 19.57261719 -2.71234375 18.95773438 -3.3046875 18.32421875 C-10.63456599 11.22244852 -19.02314406 7.93269998 -29.1875 7.625 C-41.53748731 8.06742534 -51.39729771 13.44187784 -59.1015625 23.12109375 Z " fill="#3C5463" transform="translate(293.5625,126.8125)"/>
<path d="M0 0 C1.20606903 -0.00145523 2.41213806 -0.00291046 3.65475464 -0.00440979 C6.18766716 -0.0027597 8.72059065 0.00870068 11.25341797 0.02954102 C15.11339154 0.05856521 18.97199465 0.05011522 22.83203125 0.03710938 C25.30469412 0.04334594 27.77735269 0.05173623 30.25 0.0625 C31.39397247 0.05956436 32.53794495 0.05662872 33.71658325 0.05360413 C44.03016845 0.17417739 52.42954206 2.10395086 60.03125 9.47265625 C67.63477575 17.51856896 69.40554134 24.50708083 69.6171875 35.30859375 C69.66820275 37.16937514 69.72273344 39.0300644 69.78125 40.890625 C69.79881348 41.70378174 69.81637695 42.51693848 69.83447266 43.35473633 C69.91773541 45.68222089 69.91773541 45.68222089 70.9921875 48.49609375 C74.03432017 50.01716009 77.27266322 49.87038713 80.6171875 50.05859375 C81.67679688 50.12336914 81.67679688 50.12336914 82.7578125 50.18945312 C84.50237287 50.29554126 86.24725447 50.39632264 87.9921875 50.49609375 C87.9921875 54.78609375 87.9921875 59.07609375 87.9921875 63.49609375 C85.3040626 63.57773534 82.6184645 63.63689043 79.9296875 63.68359375 C79.17751953 63.70873047 78.42535156 63.73386719 77.65039062 63.75976562 C71.55896418 63.83887506 66.91855944 62.89417542 62.06640625 58.91796875 C61.60878906 58.36625 61.15117187 57.81453125 60.6796875 57.24609375 C60.20917969 56.7046875 59.73867187 56.16328125 59.25390625 55.60546875 C55.26524772 48.93712323 55.6611979 41.46573477 55.68945312 33.96679688 C55.54596536 27.89865284 54.49251478 22.84088934 49.9921875 18.49609375 C43.59830009 13.92647871 37.2399803 13.9235356 29.609375 14 C28.4363382 13.99854477 27.26330139 13.99708954 26.05471802 13.99559021 C23.58544418 13.99724402 21.11615949 14.00874685 18.64697266 14.02954102 C14.87227581 14.05855464 11.09897979 14.05012579 7.32421875 14.03710938 C4.91926403 14.04334564 2.51431372 14.05173569 0.109375 14.0625 C-1.01574493 14.05956436 -2.14086487 14.05662872 -3.30007935 14.05360413 C-8.91247236 14.1210913 -13.21964847 14.21810316 -18.0078125 17.49609375 C-21.7700273 21.65433117 -22.57608341 24.9514769 -22.34765625 30.37890625 C-21.89026313 33.22841283 -20.69034697 35.18260885 -19.0078125 37.49609375 C-19.0078125 38.15609375 -19.0078125 38.81609375 -19.0078125 39.49609375 C-13.65202169 41.6673603 -9.36034332 42.6375693 -3.59375 42.671875 C-2.09503833 42.69509214 -0.5963404 42.71921022 0.90234375 42.74414062 C3.25220692 42.77907829 5.60157029 42.80850392 7.95166016 42.82202148 C24.63323377 42.93661695 24.63323377 42.93661695 31.9921875 47.49609375 C32.64106934 47.87386963 33.28995117 48.25164551 33.95849609 48.64086914 C40.99315828 52.90257725 44.95402967 60.14722721 47.39453125 67.80224609 C48.59389682 73.20821001 48.42113458 78.67200043 48.3671875 84.18359375 C48.37878906 85.38048828 48.39039063 86.57738281 48.40234375 87.81054688 C48.37925067 94.72692487 48.08134927 99.60066981 43.66015625 105.17578125 C37.82689309 109.88548713 31.14076991 108.94226047 23.9921875 108.49609375 C23.9921875 104.20609375 23.9921875 99.91609375 23.9921875 95.49609375 C28.9421875 95.00109375 28.9421875 95.00109375 33.9921875 94.49609375 C34.100764 90.82862099 34.17978608 87.16440569 34.2421875 83.49609375 C34.27570313 82.46613281 34.30921875 81.43617188 34.34375 80.375 C34.42669855 73.86353855 33.83253262 68.89182931 29.9921875 63.49609375 C24.8436288 58.60496298 20.97950196 57.25689897 13.91796875 57.15234375 C12.89306587 57.13040955 12.89306587 57.13040955 11.84745789 57.10803223 C9.66659393 57.06168209 7.48581542 57.02744219 5.3046875 56.99609375 C-19.66657651 56.63277374 -19.66657651 56.63277374 -27.82421875 48.73828125 C-34.7658159 41.34743668 -36.6877395 34.88009054 -36.41796875 24.74609375 C-35.48912075 17.38607913 -31.6733235 10.9992556 -26.15206909 6.07862854 C-18.38993946 0.34991107 -9.29867923 -0.09163871 0 0 Z " fill="#0549A6" transform="translate(149.0078125,62.50390625)"/>
<path d="M0 0 C5.25311038 5.25311038 8.10906011 10.96017346 8.5 18.375 C8.26953152 26.44139686 4.77834274 33.44186077 -0.66015625 39.296875 C-4.89699837 42.79395103 -9.86343492 44.95249888 -14.875 47.125 C-15.25720703 46.7125 -15.63941406 46.3 -16.03320312 45.875 C-17.1706462 44.64858725 -18.3092551 43.42325521 -19.44873047 42.19873047 C-20.73806313 40.81069604 -22.02352397 39.41905549 -23.30517578 38.02392578 C-26.63111996 34.42582048 -29.98241058 31.14192475 -33.75 28 C-37.02686594 24.77235737 -37.44615077 22.24815539 -37.625 17.6875 C-37.09772428 9.96603854 -35.26860212 4.0084279 -29.5 -1.3125 C-19.85431215 -8.72120918 -9.54447467 -6.22465739 0 0 Z M-17.75 11.375 C-19.46171395 14.03766614 -20.01236869 16.16170203 -19.5625 19.31640625 C-17.20135331 27.45967922 -13.17419381 35.30592767 -6.875 41.125 C-0.8662811 37.49182113 3.58191035 33.55028377 6 26.8125 C6.61443571 23.51130451 6.35801522 22.46802008 4.4453125 19.65234375 C-0.57013082 14.45958677 -5.21143895 10.49756553 -12.5625 9.75 C-15.78589915 9.85905156 -15.78589915 9.85905156 -17.75 11.375 Z " fill="#3C5462" transform="translate(241.875,31.875)"/>
<path d="M0 0 C2.31 0.66 4.62 1.32 7 2 C7.09913574 6.75050819 7.17159264 11.50040976 7.21972656 16.25170898 C7.23979892 17.86672458 7.2670633 19.48166789 7.30175781 21.09643555 C7.35047215 23.42254501 7.37301154 25.74769093 7.390625 28.07421875 C7.41127014 28.79212082 7.43191528 29.51002289 7.45318604 30.24967957 C7.45479224 33.86655069 7.07033539 35.8853077 5.16308594 38.99536133 C3 41 3 41 0 41 C0.33 40.401875 0.66 39.80375 1 39.1875 C2.20787988 36.94613529 2.20787988 36.94613529 2 34 C1.54625 33.54625 1.0925 33.0925 0.625 32.625 C-3.97098101 28.02901899 -3.52766208 21.40142654 -3.8125 15.3125 C-3.87630859 14.35021484 -3.94011719 13.38792969 -4.00585938 12.39648438 C-4.05162109 11.47802734 -4.09738281 10.55957031 -4.14453125 9.61328125 C-4.18940674 8.77579346 -4.23428223 7.93830566 -4.28051758 7.07543945 C-4.18794678 6.39054443 -4.09537598 5.70564941 -4 5 C-3.01 4.34 -2.02 3.68 -1 3 C-0.67 2.01 -0.34 1.02 0 0 Z " fill="#0149AD" transform="translate(188,126)"/>
<path d="M0 0 C0.66 0.33 1.32 0.66 2 1 C2.02886537 5.31248609 2.04675255 9.62494762 2.0625 13.9375 C2.07087891 15.16919922 2.07925781 16.40089844 2.08789062 17.66992188 C2.09111328 18.83974609 2.09433594 20.00957031 2.09765625 21.21484375 C2.10289307 22.29886475 2.10812988 23.38288574 2.11352539 24.49975586 C2 27 2 27 1 28 C-1.67058851 28.14115161 -4.32432238 28.04247107 -7 28 C-7.66 31.63 -8.32 35.26 -9 39 C-4.05 38.67 0.9 38.34 6 38 C4 40 4 40 0.7421875 40.1953125 C-1.17207031 40.16050781 -1.17207031 40.16050781 -3.125 40.125 C-5.04699219 40.09792969 -5.04699219 40.09792969 -7.0078125 40.0703125 C-7.99523437 40.04710937 -8.98265625 40.02390625 -10 40 C-10 35.71 -10 31.42 -10 27 C-6.7 26.67 -3.4 26.34 0 26 C0 17.42 0 8.84 0 0 Z " fill="#194E98" transform="translate(183,131)"/>
<path d="M0 0 C0 0.33 0 0.66 0 1 C-1.41539062 0.96519531 -1.41539062 0.96519531 -2.859375 0.9296875 C-12.8936512 0.78864346 -22.62731559 0.97346771 -32 5 C-32 5.66 -32 6.32 -32 7 C-34.31 7 -36.62 7 -39 7 C-35.75225777 3.06634783 -32.38646204 1.86520471 -27.5625 0.75 C-26.85818848 0.58089111 -26.15387695 0.41178223 -25.42822266 0.23754883 C-16.85486166 -1.6763376 -8.62468383 -1.57394082 0 0 Z " fill="#394C58" transform="translate(277,120)"/>
<path d="M0 0 C1.98 0 3.96 0 6 0 C6 0.33 6 0.66 6 1 C14.91 1 23.82 1 33 1 C33 1.66 33 2.32 33 3 C21.78 3 10.56 3 -1 3 C-0.67 2.01 -0.34 1.02 0 0 Z " fill="#3B4C5A" transform="translate(199,218)"/>
<path d="M0 0 C0.33 0 0.66 0 1 0 C2.62196967 9.32632563 2.19388301 17.79352664 0 27 C-0.66 26.67 -1.32 26.34 -2 26 C-1.835 24.824375 -1.67 23.64875 -1.5 22.4375 C-0.83772216 16.67936215 -0.96986515 10.94404474 -1.0625 5.16015625 C-1 2 -1 2 0 0 Z " fill="#364F58" transform="translate(160,160)"/>
<path d="M0 0 C0.33 0 0.66 0 1 0 C0.96519531 1.57201172 0.96519531 1.57201172 0.9296875 3.17578125 C0.91092697 4.55468037 0.89272707 5.9335872 0.875 7.3125 C0.85824219 8.00279297 0.84148437 8.69308594 0.82421875 9.40429688 C0.78782206 13.17135396 0.85621136 14.78431704 3 18 C1.6875 20 1.6875 20 0 22 C-0.99 22 -1.98 22 -3 22 C-2.86722656 21.41734375 -2.73445312 20.8346875 -2.59765625 20.234375 C-1.14906124 13.50951058 -0.44789343 6.85984142 0 0 Z " fill="#3B4D59" transform="translate(146,166)"/>
<path d="M0 0 C1.7492214 -0.08142927 3.49954542 -0.13938541 5.25 -0.1875 C6.22453125 -0.22230469 7.1990625 -0.25710937 8.203125 -0.29296875 C11 0 11 0 15 3 C9.72 3 4.44 3 -1 3 C-0.67 2.01 -0.34 1.02 0 0 Z " fill="#3B4A56" transform="translate(183,210)"/>
<path d="M0 0 C1.32 0.33 2.64 0.66 4 1 C4 1.66 4 2.32 4 3 C4.66 2.34 5.32 1.68 6 1 C7.98821313 0.60235737 9.98944339 0.26224651 12 0 C11.690625 0.598125 11.38125 1.19625 11.0625 1.8125 C9.89790296 4.08956772 9.89790296 4.08956772 9 7 C9.66 7.33 10.32 7.66 11 8 C7.05594798 8 5.9482215 6.50598828 3 4 C2.01 3.34 1.02 2.68 0 2 C0 1.34 0 0.68 0 0 Z " fill="#384C58" transform="translate(281,137)"/>
<path d="M0 0 C0.66 0.33 1.32 0.66 2 1 C0.39225047 3.45393349 -0.78095802 4.87895049 -3.375 6.3125 C-6.98868565 8.63558363 -8.63975191 11.42591003 -11 15 C-11.33 14.01 -11.66 13.02 -12 12 C-8.88409801 7.28744016 -4.54709562 3.30697864 0 0 Z " fill="#3A4954" transform="translate(78,128)"/>
<path d="M0 0 C0 0.99 0 1.98 0 3 C-4.47084959 7.36440079 -8.4534118 9.84580051 -14.875 10.125 C-15.57625 10.08375 -16.2775 10.0425 -17 10 C-14.4931707 8.32878046 -12.37611624 7.2611265 -9.625 6.125 C-5.93514096 4.52385399 -3.00812701 2.71701794 0 0 Z " fill="#394650" transform="translate(289,199)"/>
<path d="M0 0 C2.95051654 3.45922629 5.25855517 6.7838704 7 11 C6.67 11.99 6.34 12.98 6 14 C0 5.4 0 5.4 0 0 Z " fill="#3C4C57" transform="translate(214,187)"/>
<path d="M0 0 C-2.46153846 3.81538462 -2.46153846 3.81538462 -5.1875 4.75 C-5.785625 4.8325 -6.38375 4.915 -7 5 C-7 4.34 -7 3.68 -7 3 C-7.66 2.67 -8.32 2.34 -9 2 C-3.375 -1.125 -3.375 -1.125 0 0 Z M-11 3 C-9 4 -9 4 -9 4 Z " fill="#374954" transform="translate(92,123)"/>
<path d="M0 0 C0.99 0.33 1.98 0.66 3 1 C-1 3.66666667 -5 6.33333333 -9 9 C-7.27592413 4.61144323 -4.17026127 2.08513063 0 0 Z " fill="#3C4D58" transform="translate(218,27)"/>
<path d="M0 0 C0.75 1.625 0.75 1.625 1 4 C-1.38252013 8.58176948 -3.19910921 10.32527066 -8 12 C-4 6 -4 6 0 0 Z " fill="#3E4C57" transform="translate(142,188)"/>
<path d="M0 0 C0.66 1.32 1.32 2.64 2 4 C1.34 4 0.68 4 0 4 C-0.1546875 4.8971875 -0.1546875 4.8971875 -0.3125 5.8125 C-1.08876455 8.28243264 -2.07088921 9.32251235 -4 11 C-3.48964169 6.6109185 -2.47785723 3.66291938 0 0 Z " fill="#3C4B55" transform="translate(218,146)"/>
<path d="M0 0 C1.65 0 3.3 0 5 0 C3.68 3.63 2.36 7.26 1 11 C0.67 11 0.34 11 0 11 C0 7.37 0 3.74 0 0 Z " fill="#3D4E58" transform="translate(72,153)"/>
<path d="M0 0 C4.99275057 1.27721526 7.57611908 3.17330957 11 7 C10.01 7 9.02 7 8 7 C8 6.34 8 5.68 8 5 C7.05125 4.731875 6.1025 4.46375 5.125 4.1875 C2 3 2 3 0 0 Z " fill="#144A97" transform="translate(197,65)"/>
<path d="M0 0 C2.5 1.6875 2.5 1.6875 5 4 C5.3125 6.75 5.3125 6.75 5 9 C4.01 9 3.02 9 2 9 C1.34 6.03 0.68 3.06 0 0 Z " fill="#394A55" transform="translate(143,156)"/>
<path d="M0 0 C4.05606165 0.46800711 7.46588679 0.87953208 11 3 C8 4 8 4 4 4 C4 3.34 4 2.68 4 2 C2.68 1.34 1.36 0.68 0 0 Z " fill="#394C56" transform="translate(277,121)"/>
<path d="M0 0 C1.61363928 3.22727857 0.08456242 5.68923051 -1 9 C-1.64775627 10.34262208 -2.3101489 11.67851308 -3 13 C-2.88490339 11.58249437 -2.75746342 10.16598831 -2.625 8.75 C-2.55539063 7.96109375 -2.48578125 7.1721875 -2.4140625 6.359375 C-1.98492887 3.914123 -1.21399362 2.15163097 0 0 Z " fill="#3A4C56" transform="translate(208,36)"/>
<path d="M0 0 C2.475 0.495 2.475 0.495 5 1 C5 1.66 5 2.32 5 3 C3.35 3 1.7 3 0 3 C0 2.01 0 1.02 0 0 Z " fill="#38414E" transform="translate(189,218)"/>
<path d="M0 0 C1.32 0 2.64 0 4 0 C4 0.99 4 1.98 4 3 C2.35 2.67 0.7 2.34 -1 2 C-0.67 1.34 -0.34 0.68 0 0 Z " fill="#3F4D56" transform="translate(37,220)"/>
<path d="" fill="#334D4D" transform="translate(0,0)"/>
<path d="" fill="#2E4646" transform="translate(0,0)"/>
<path d="" fill="#404040" transform="translate(0,0)"/>
</svg>
