<?xml version="1.0" encoding="UTF-8"?>
<svg version="1.1" xmlns="http://www.w3.org/2000/svg" width="496" height="125">
<path d="M0 0 C7.83544504 7.25143671 11.73417647 16.57967758 12.79296875 27.078125 C13.20757917 38.75355456 9.59040836 49.62626722 1.69921875 58.33203125 C-8.23979486 67.62852276 -20.03477383 70.86564836 -33.40625 70.57421875 C-45.22696552 69.62916154 -55.68021423 65.14556544 -63.8828125 56.45703125 C-72.05017041 45.60042134 -73.58698111 34.48240066 -72.484375 21.328125 C-70.33993944 10.59302889 -63.70513107 2.23692135 -55.01171875 -4.16796875 C-37.5337016 -14.56833444 -15.76100975 -12.15849324 0 0 Z M-48.3984375 13.55859375 C-53.51296517 20.98799058 -54.36151577 27.37312969 -53.484375 36.328125 C-51.32016908 43.75114905 -47.20919957 48.60938771 -40.484375 52.328125 C-34.52811081 54.91291889 -28.74098011 54.71448066 -22.484375 53.328125 C-15.59578847 50.41417131 -10.59113716 45.35934243 -7.671875 38.453125 C-5.21786706 31.06305537 -6.17983847 24.26141674 -9.484375 17.328125 C-12.89139337 11.93633269 -17.28225371 8.04812601 -23.484375 6.328125 C-32.86877878 5.05444152 -41.94137792 6.03414269 -48.3984375 13.55859375 Z " fill="#3C5463" transform="translate(163.484375,40.671875)"/>
<path d="M0 0 C1.71396648 1.71826213 2.59876325 3.34677187 3.55859375 5.5625 C1.99104195 7.2646698 0.40399591 8.94890554 -1.19140625 10.625 C-2.073125 11.56472656 -2.95484375 12.50445312 -3.86328125 13.47265625 C-6.44140625 15.5625 -6.44140625 15.5625 -8.546875 15.52734375 C-10.53301178 14.51584729 -12.23734753 13.42199933 -14.00390625 12.0625 C-20.31796128 7.22500572 -27.84229969 8.00724169 -35.44140625 8.5625 C-41.66689042 10.14266877 -46.01559043 14.23220105 -49.44140625 19.5625 C-52.09193097 26.0683334 -52.50707653 32.9858637 -50.31640625 39.6875 C-47.98671807 45.0521948 -45.1460771 49.17956875 -39.8515625 51.88671875 C-30.40605464 55.57940701 -24.60357604 54.59493396 -14.44140625 52.5625 C-14.44140625 44.9725 -14.44140625 37.3825 -14.44140625 29.5625 C-8.83140625 29.5625 -3.22140625 29.5625 2.55859375 29.5625 C2.74281344 34.032386 2.90172744 38.4890502 2.99804688 42.9597168 C3.03818682 44.47807479 3.09271705 45.99612522 3.16210938 47.51342773 C3.72253703 60.08596283 3.72253703 60.08596283 0.93774414 63.61865234 C-1.15990196 64.96378746 -3.07520353 65.79792929 -5.44140625 66.5625 C-6.89740234 67.21992188 -6.89740234 67.21992188 -8.3828125 67.890625 C-22.21576504 72.75586613 -36.5345122 73.36892789 -50.20703125 67.34375 C-60.61204429 61.59865077 -66.93844281 52.94624215 -70.69140625 41.875 C-73.44254362 29.25942415 -71.03547916 17.63393018 -64.16015625 6.8828125 C-57.73841468 -1.78653862 -48.6033909 -6.47637863 -38.19140625 -8.8125 C-24.37804999 -10.86477007 -11.13861282 -8.52184931 0 0 Z " fill="#3C5462" transform="translate(75.44140625,39.4375)"/>
<path d="M0 0 C7.8261395 4.94974121 13.87071886 11.32875235 16.40625 20.38671875 C18.64918953 33.23264513 13.58971762 42.93912605 7.65625 54.07421875 C7.04313965 55.24057861 6.4300293 56.40693848 5.79833984 57.60864258 C0.02131898 68.58055817 -5.90806226 79.47186186 -11.90625 90.32421875 C-12.89625 90.32421875 -13.88625 90.32421875 -14.90625 90.32421875 C-15.3688623 89.41881348 -15.83147461 88.5134082 -16.30810547 87.58056641 C-18.06981659 84.13480707 -19.83537321 80.69103048 -21.6022644 77.2479248 C-22.38703808 75.71782638 -23.17099674 74.18730967 -23.95413208 72.65637207 C-28.00268432 64.74569122 -32.06960437 56.88459238 -36.57958984 49.22412109 C-42.29487147 39.50438954 -45.6935903 30.0487514 -42.79296875 18.66796875 C-39.38318168 9.65531571 -32.91004262 2.94026032 -24.21875 -1.05078125 C-16.11205193 -3.98299119 -7.72262382 -3.98722425 0 0 Z M-28.34375 15.13671875 C-30.92624202 20.40500246 -31.6186255 24.87602146 -29.90625 30.44921875 C-27.67072069 35.5879015 -24.00282502 38.84215128 -18.98828125 41.2421875 C-14.23424026 42.80788962 -10.55893129 42.18006872 -5.94921875 40.37109375 C-0.79985288 37.73241296 2.07551119 33.63537351 4.09375 28.32421875 C4.68874079 22.87013654 3.7537296 19.11218203 1.09375 14.32421875 C-2.85306829 10.13417917 -7.31709509 7.06525406 -13.15625 6.88671875 C-19.80821691 7.05110014 -24.09529177 10.23465156 -28.34375 15.13671875 Z " fill="#3C5463" transform="translate(399.90625,15.67578125)"/>
<path d="M0 0 C9.838125 -0.0928125 9.838125 -0.0928125 19.875 -0.1875 C21.92444824 -0.21481201 23.97389648 -0.24212402 26.08544922 -0.27026367 C27.74185602 -0.27903986 29.39826938 -0.2866811 31.0546875 -0.29296875 C31.8887915 -0.30831665 32.72289551 -0.32366455 33.58227539 -0.33947754 C44.62892953 -0.34429579 54.81341859 3.39304094 63.04296875 10.8515625 C71.99249567 20.43080027 73.48327484 30.85684785 73.27734375 43.5 C72.84113701 53.98632313 67.23097775 62.20907977 59.75 69.25 C53.72526917 74.17444591 45.46934667 77.13695586 37.69042969 77.11352539 C36.83819824 77.11340454 35.9859668 77.11328369 35.10791016 77.11315918 C34.22151855 77.10804321 33.33512695 77.10292725 32.421875 77.09765625 C31.60025879 77.09664917 30.77864258 77.09564209 29.93212891 77.09460449 C26.87140501 77.08938382 23.81070106 77.07542255 20.75 77.0625 C10.47875 77.0315625 10.47875 77.0315625 0 77 C0 51.59 0 26.18 0 0 Z M9 8 C9 28.13 9 48.26 9 69 C16.363125 69.12375 16.363125 69.12375 23.875 69.25 C25.40237793 69.28641602 26.92975586 69.32283203 28.50341797 69.36035156 C39.58025349 69.45004254 47.98891993 67.70235776 56.2421875 59.93359375 C63.40954055 52.0495054 64.41023738 45.13998743 64.19921875 34.69140625 C63.73669067 26.12103301 60.33424172 21.42368085 54.48046875 15.20703125 C42.03388402 4.13251098 24.45834553 8 9 8 Z " fill="#0649A5" transform="translate(194,32)"/>
<path d="M0 0 C44.2 0 44.2 0 53 7 C58.68046529 12.68046529 61.05942866 18.9097853 61.4375 26.9375 C61.18692535 33.39230294 59.5212412 39.25143377 55.09375 44.078125 C53.12240907 45.82879344 51.12234963 47.43725427 49 49 C47.66615194 49.99931333 46.33275003 50.99922273 45 52 C45.37286133 52.50861572 45.74572266 53.01723145 46.12988281 53.54125977 C47.840348 55.87894861 49.54519778 58.22067854 51.25 60.5625 C51.83652344 61.36236328 52.42304688 62.16222656 53.02734375 62.98632812 C56.32687922 67.52782358 59.32353588 72.06444116 62 77 C58.49283522 77.64681318 55.49453092 77.78714685 52 77 C47.63312901 73.37028888 44.72575504 68.61637294 42.41796875 63.4765625 C39.63681041 57.9015649 39.63681041 57.9015649 35 54 C26.5131694 52.06803856 17.63442024 52.61694572 9 53 C9 60.92 9 68.84 9 77 C6.03 77 3.06 77 0 77 C0 51.59 0 26.18 0 0 Z M9 8 C9 20.21 9 32.42 9 45 C13.29 45.061875 17.58 45.12375 22 45.1875 C24.00513672 45.22846802 24.00513672 45.22846802 26.05078125 45.27026367 C34.14011026 45.32657412 40.29688285 44.96249372 46.8125 39.75 C50.98939315 34.49904861 52.71804257 29.70173066 52 23 C49.91337452 16.63030118 47.01731396 12.77464023 41.23046875 9.37109375 C35.35736068 6.94641611 28.79083984 7.6908261 22.5625 7.8125 C18.086875 7.874375 13.61125 7.93625 9 8 Z " fill="#0549A6" transform="translate(287,32)"/>
<path d="M0 0 C45.91817332 0 45.91817332 0 54.56640625 8.31640625 C60.29664784 15.04592702 61.47283207 22.76264072 60.81640625 31.421875 C59.69134503 38.14904519 56.39096262 43.2899812 51.07421875 47.5390625 C44.77941064 51.719304 38.53572939 53.26253982 30.97265625 53.1953125 C29.04389648 53.18564453 29.04389648 53.18564453 27.07617188 53.17578125 C25.73827846 53.15907601 24.40038783 53.14214619 23.0625 53.125 C21.69727217 53.11495322 20.3320372 53.10583036 18.96679688 53.09765625 C15.64445474 53.0741768 12.32220423 53.03830857 9 53 C9 60.92 9 68.84 9 77 C6.03 77 3.06 77 0 77 C0 51.59 0 26.18 0 0 Z M9 8 C9 20.21 9 32.42 9 45 C15.4040625 45.12375 15.4040625 45.12375 21.9375 45.25 C23.26515381 45.28641602 24.59280762 45.32283203 25.96069336 45.36035156 C34.81170884 45.44269277 41.29646439 44.38834109 47.9375 38.3125 C51.18432011 33.09791012 52.65191571 28.00271656 51.5 21.875 C50.10883926 17.46378777 47.68351144 13.80885525 44 11 C36.78715812 7.35134931 29.95286752 7.65001072 22 7.8125 C15.565 7.9053125 15.565 7.9053125 9 8 Z " fill="#0749A2" transform="translate(431,32)"/>
<path d="M0 0 C4.38949942 2.27603674 7.03022505 4.43841591 9 9 C10.38618303 15.03979747 10.22577866 19.58901644 7 25 C3.90064781 28.41182094 0.64634009 30.73788631 -4.05078125 31.203125 C-9.14368344 31.30867738 -12.64562746 30.93666985 -17 28 C-21.58489498 23.04335678 -22.36331663 19.06650268 -22.27734375 12.50390625 C-21.86265651 8.76003972 -20.50322623 6.76672373 -18 4 C-11.78103662 -0.69595194 -7.48187894 -1.64985023 0 0 Z " fill="#3D5563" transform="translate(393,25)"/>
<path d="M0 0 C38 0 38 0 42 2 C28.8 2 15.6 2 2 2 C2 26.42 2 50.84 2 76 C3.98 76 5.96 76 8 76 C8 68.41 8 60.82 8 53 C8.33 53 8.66 53 9 53 C9 60.92 9 68.84 9 77 C6.03 77 3.06 77 0 77 C0 51.59 0 26.18 0 0 Z " fill="#134A92" transform="translate(287,32)"/>
<path d="M0 0 C-2 2 -2 2 -4.0625 2.5 C-5.0215625 2.7475 -5.0215625 2.7475 -6 3 C-6.33 3.66 -6.66 4.32 -7 5 C-16.9 5 -26.8 5 -37 5 C-37.33 3.35 -37.66 1.7 -38 0 C-33.49145725 -2.25427138 -27.4156828 -1.45281799 -22.39697266 -1.61254883 C-20.14039685 -1.68699207 -17.88484922 -1.77771012 -15.62890625 -1.86914062 C-14.19274193 -1.9176712 -12.75654434 -1.96522902 -11.3203125 -2.01171875 C-10.01336426 -2.05772217 -8.70641602 -2.10372559 -7.35986328 -2.15112305 C-4.21402063 -2.00962642 -2.60198939 -1.68565093 0 0 Z " fill="#014AAB" transform="translate(243,103)"/>
<path d="M0 0 C1.65 1.65 3.3 3.3 5 5 C5.99 3.35 6.98 1.7 8 0 C15.63076923 1.47692308 15.63076923 1.47692308 17.5 4.125 C17.7475 5.053125 17.7475 5.053125 18 6 C15.16015917 9.11030186 13.1309246 9.92694649 8.85546875 10.203125 C7.03982422 10.22632812 7.03982422 10.22632812 5.1875 10.25 C3.38345703 10.28867188 3.38345703 10.28867188 1.54296875 10.328125 C-2.28988045 9.9731533 -4.69715027 8.92202587 -8 7 C-8 5.68 -8 4.36 -8 3 C-5.36 2.01 -2.72 1.02 0 0 Z " fill="#3B505E" transform="translate(382,104)"/>
<path d="M0 0 C0.66 0.66 1.32 1.32 2 2 C4.91139786 2.3564355 4.91139786 2.3564355 8.328125 2.37890625 C10.24044922 2.43014648 10.24044922 2.43014648 12.19140625 2.48242188 C13.5442586 2.50972745 14.89712357 2.5364146 16.25 2.5625 C18.88039927 2.62076229 21.51042744 2.68636341 24.140625 2.75390625 C25.31141602 2.77783447 26.48220703 2.8017627 27.68847656 2.82641602 C30.86405554 2.99287404 33.87774306 3.41153817 37 4 C37 4.66 37 5.32 37 6 C34.69 5.67 32.38 5.34 30 5 C15.15 4.505 15.15 4.505 0 4 C0 24.13 0 44.26 0 65 C-0.66 65 -1.32 65 -2 65 C-2.04632222 56.96803092 -2.08186855 48.93611757 -2.10362434 40.90404797 C-2.11406556 37.1745094 -2.12823083 33.44506217 -2.15087891 29.71557617 C-2.17259539 26.11701369 -2.18456608 22.5185391 -2.18975449 18.91991615 C-2.1934524 17.54637582 -2.20067345 16.17284034 -2.21146011 14.79933739 C-2.22595829 12.87693338 -2.22681678 10.95444109 -2.22705078 9.03198242 C-2.231492 7.93722092 -2.23593323 6.84245941 -2.24050903 5.71452332 C-2 3 -2 3 0 0 Z " fill="#174C94" transform="translate(203,36)"/>
<path d="M0 0 C0 0.66 0 1.32 0 2 C0.66 2 1.32 2 2 2 C2 3.32 2 4.64 2 6 C2.66 6 3.32 6 4 6 C5.23156105 9.69468315 5.22260483 13.15097846 5.25 17 C5.270625 17.72445312 5.29125 18.44890625 5.3125 19.1953125 C5.35191187 24.53562144 5.35191187 24.53562144 3.484375 27 C2.99453125 27.33 2.5046875 27.66 2 28 C1.67 27.34 1.34 26.68 1 26 C0.01 26 -0.98 26 -2 26 C-1.96519531 25.11699219 -1.93039062 24.23398438 -1.89453125 23.32421875 C-1.71437058 15.33709572 -2.40647489 8.56444825 -5 1 C-2 0 -2 0 0 0 Z " fill="#0249AB" transform="translate(341,42)"/>
<path d="M0 0 C5.24695799 -0.07466663 10.49360043 -0.12884421 15.7409668 -0.16479492 C17.52259719 -0.17979643 19.30419119 -0.20020433 21.08569336 -0.22631836 C23.66008535 -0.26308509 26.2339853 -0.27981285 28.80859375 -0.29296875 C29.59334579 -0.30845261 30.37809784 -0.32393646 31.18663025 -0.33988953 C36.92961133 -0.34160154 41.66583227 0.90618819 47 3 C43.51808343 3.98514668 41.54987418 3.72086991 38 3 C35.06637497 2.85643933 32.13575654 2.88352532 29.19921875 2.90234375 C27.9446563 2.90446617 27.9446563 2.90446617 26.66474915 2.90663147 C24.005629 2.91220816 21.3465945 2.92475635 18.6875 2.9375 C16.87955851 2.94251801 15.0716157 2.94708039 13.26367188 2.95117188 C8.84241516 2.96216996 4.42122207 2.9794185 0 3 C0 2.01 0 1.02 0 0 Z " fill="#134995" transform="translate(431,32)"/>
<path d="M0 0 C0 1.98 0 3.96 0 6 C-0.66 6 -1.32 6 -2 6 C-2.1546875 7.1446875 -2.1546875 7.1446875 -2.3125 8.3125 C-3.06124739 11.23942162 -3.51692929 12.31505916 -6 14 C-8.6875 14.1875 -8.6875 14.1875 -11 14 C-11 13.01 -11 12.02 -11 11 C-10.34 10.67 -9.68 10.34 -9 10 C-8.64080332 8.33871537 -8.31088368 6.67099977 -8 5 C-7.125 2.75 -7.125 2.75 -6 1 C-3 0 -3 0 0 0 Z " fill="#0249AD" transform="translate(489,63)"/>
<path d="M0 0 C1.91423658 0.81210037 3.52072017 1.52072017 5 3 C5.24661958 7.93239162 5.25068913 11.49862174 3 16 C0 14 0 14 -0.51171875 11.8359375 C-0.56972656 11.02382813 -0.62773437 10.21171875 -0.6875 9.375 C-0.75324219 8.55773438 -0.81898438 7.74046875 -0.88671875 6.8984375 C-0.92410156 6.27195312 -0.96148437 5.64546875 -1 5 C-1.66 5 -2.32 5 -3 5 C-2.625 3.0625 -2.625 3.0625 -2 1 C-1.34 0.67 -0.68 0.34 0 0 Z " fill="#0149AC" transform="translate(484,44)"/>
<path d="M0 0 C1.32 0.66 2.64 1.32 4 2 C4 2.66 4 3.32 4 4 C3.34 4 2.68 4 2 4 C2 5.65 2 7.3 2 9 C0.68 9 -0.64 9 -2 9 C-2.33 9.99 -2.66 10.98 -3 12 C-4.32 12 -5.64 12 -7 12 C-7.33 9.69 -7.66 7.38 -8 5 C-7.34 4.67 -6.68 4.34 -6 4 C-6 4.66 -6 5.32 -6 6 C-4.04105639 5.88693303 -4.04105639 5.88693303 -2 5 C-0.70339566 2.50965614 -0.70339566 2.50965614 0 0 Z " fill="#034AAB" transform="translate(255,89)"/>
<path d="M0 0 C7.33353035 1.8803924 13.99407441 6.34112759 19 12 C18.67 12.66 18.34 13.32 18 14 C17.59007812 13.566875 17.18015625 13.13375 16.7578125 12.6875 C16.21898437 12.130625 15.68015625 11.57375 15.125 11 C14.32449219 10.1646875 14.32449219 10.1646875 13.5078125 9.3125 C12.08175012 7.78114478 12.08175012 7.78114478 10 8 C9.67 10.31 9.34 12.62 9 15 C7.02 13.68 5.04 12.36 3 11 C3.66 10.01 4.32 9.02 5 8 C5.63292383 5.88719655 5.63292383 5.88719655 6 4 C4.02 3.34 2.04 2.68 0 2 C0 1.34 0 0.68 0 0 Z " fill="#0F4997" transform="translate(241,34)"/>
<path d="M0 0 C5.27377552 4.35199814 6.62605679 12.51737228 7.32421875 19.01953125 C7.42668179 24.65499869 6.62580826 29.61451014 5 35 C4.34 35 3.68 35 3 35 C3 33.35 3 31.7 3 30 C3.66 30 4.32 30 5 30 C4.67 29.01 4.34 28.02 4 27 C3.93127183 23.7053432 4.00252946 20.42353792 4.0625 17.12890625 C3.97472972 12.73490683 3.4491379 10.67370685 1 7 C0.60612212 4.67612053 0.26513915 2.34206251 0 0 Z " fill="#3C4E5A" transform="translate(169,49)"/>
<path d="M0 0 C4.69627056 4.18492878 6.69560858 10.0724232 7.17626953 16.27441406 C7.34242238 21.52233596 7.20772023 26.75506423 7 32 C6.34 31.67 5.68 31.34 5 31 C5.02320313 30.18917969 5.04640625 29.37835938 5.0703125 28.54296875 C5.19154029 21.10477802 4.62918925 14.25861997 3 7 C2.01 6.67 1.02 6.34 0 6 C0 4.02 0 2.04 0 0 Z " fill="#114995" transform="translate(260,48)"/>
<path d="M0 0 C2.93200474 2.85276137 5.64315404 5.65079784 8 9 C7.67 9.66 7.34 10.32 7 11 C6.21625 10.175 5.4325 9.35 4.625 8.5 C2.36278736 5.77011494 2.36278736 5.77011494 0 6 C-0.33 7.65 -0.66 9.3 -1 11 C-3.96404505 8.19195732 -6.44499019 5.81684226 -8 2 C-5 3 -5 3 -4 5 C-2.35 4.67 -0.7 4.34 1 4 C0.67 2.68 0.34 1.36 0 0 Z " fill="#114997" transform="translate(330,83)"/>
<path d="M0 0 C0.66 0 1.32 0 2 0 C2 10.56 2 21.12 2 32 C0.68 32.66 -0.64 33.32 -2 34 C-1.67402832 33.14841309 -1.34805664 32.29682617 -1.01220703 31.41943359 C0.0472306 27.84044578 0.22945381 25.01046576 0.1953125 21.2890625 C0.18886719 20.04511719 0.18242188 18.80117187 0.17578125 17.51953125 C0.15064453 15.59173828 0.15064453 15.59173828 0.125 13.625 C0.11597656 12.31660156 0.10695313 11.00820312 0.09765625 9.66015625 C0.07415085 6.4399163 0.04129087 3.22005293 0 0 Z " fill="#3F4D56" transform="translate(76,69)"/>
<path d="M0 0 C1.67542976 0.28604898 3.34385343 0.61781233 5 1 C-1.30437624 4.78262575 -9.84283554 4.67240876 -17 4 C-17.99 3.34 -18.98 2.68 -20 2 C-17.57332007 0.78666004 -16.57565657 1.07866102 -13.9375 1.5 C-12.638125 1.665 -11.33875 1.83 -10 2 C-9.67 1.67 -9.34 1.34 -9 1 C-6.33333333 1 -3.66666667 1 -1 1 C-0.67 0.67 -0.34 0.34 0 0 Z " fill="#3B4852" transform="translate(58,107)"/>
<path d="M0 0 C3.68802044 1.22934015 4.72356973 2.93859378 7 6 C6.01 6.99 5.02 7.98 4 9 C3.01 8.67 2.02 8.34 1 8 C0.67 7.34 0.34 6.68 0 6 C-0.33 6 -0.66 6 -1 6 C-1.042721 4.33388095 -1.04063832 2.66617115 -1 1 C-0.67 0.67 -0.34 0.34 0 0 Z " fill="#0349AB" transform="translate(330,88)"/>
<path d="M0 0 C0.66 0.33 1.32 0.66 2 1 C2.49965798 8.66142233 0.94211131 15.97809967 -4 22 C-3.814375 21.05125 -3.62875 20.1025 -3.4375 19.125 C-2.71313368 16.10131207 -2.71313368 16.10131207 -4 14 C-3.01 13.34 -2.02 12.68 -1 12 C-0.41518879 9.11404054 -0.41518879 9.11404054 -0.3125 5.875 C-0.24675781 4.77929688 -0.18101562 3.68359375 -0.11328125 2.5546875 C-0.07589844 1.71164063 -0.03851563 0.86859375 0 0 Z " fill="#3C4C57" transform="translate(415,39)"/>
<path d="M0 0 C0 3.67718093 -0.82184858 5.07076189 -3 8 C-5.5 9.25 -5.5 9.25 -8 10 C-8.99 10.33 -9.98 10.66 -11 11 C-13.1875 10.0625 -13.1875 10.0625 -15 9 C-14.33613281 8.76925781 -13.67226562 8.53851563 -12.98828125 8.30078125 C-7.5009982 6.2740913 -3.76134878 4.51361854 0 0 Z " fill="#3E4B56" transform="translate(152,85)"/>
<path d="M0 0 C1.65 0 3.3 0 5 0 C4.67 1.32 4.34 2.64 4 4 C5.32 3.67 6.64 3.34 8 3 C8 6.63 8 10.26 8 14 C7.34 12.68 6.68 11.36 6 10 C4.97185062 8.24202438 3.92953531 6.49227573 2.875 4.75 C2.33617187 3.85796875 1.79734375 2.9659375 1.2421875 2.046875 C0.83226562 1.37140625 0.42234375 0.6959375 0 0 Z " fill="#0E4998" transform="translate(250,49)"/>
<path d="M0 0 C1.32 1.32 2.64 2.64 4 4 C3.67 4.66 3.34 5.32 3 6 C0.525 5.01 0.525 5.01 -2 4 C-2 5.98 -2 7.96 -2 10 C-3.70884005 8.37660195 -5.37446717 6.70680947 -7 5 C-7 4.34 -7 3.68 -7 3 C-3.98968256 2.06576355 -3.13349732 1.95550089 0 3 C0 2.01 0 1.02 0 0 Z " fill="#0D4C98" transform="translate(341,98)"/>
<path d="M0 0 C0.66 0 1.32 0 2 0 C2.66 0.99 3.32 1.98 4 3 C4.99 3 5.98 3 7 3 C7 3.99 7 4.98 7 6 C7.66 6.33 8.32 6.66 9 7 C8.67 7.99 8.34 8.98 8 10 C7.0925 9.236875 6.185 8.47375 5.25 7.6875 C2.885444 5.71516893 0.48694058 3.81737966 -2 2 C-1.34 1.34 -0.68 0.68 0 0 Z " fill="#3D4F5B" transform="translate(393,21)"/>
<path d="M0 0 C0.33 0 0.66 0 1 0 C1.06058594 0.75925781 1.12117188 1.51851562 1.18359375 2.30078125 C1.26738281 3.29464844 1.35117188 4.28851563 1.4375 5.3125 C1.51871094 6.29863281 1.59992188 7.28476563 1.68359375 8.30078125 C1.91812559 11.09375599 1.91812559 11.09375599 3 14 C2.72230092 16.3406065 2.39460023 18.67624308 2 21 C-0.71486934 17.02389214 -0.22440753 12.86098023 -0.125 8.25 C-0.11597656 7.45722656 -0.10695313 6.66445312 -0.09765625 5.84765625 C-0.07417012 3.89830719 -0.03830137 1.94911425 0 0 Z " fill="#3D4C54" transform="translate(91,62)"/>
<path d="M0 0 C0.66 0 1.32 0 2 0 C2.66 5.28 3.32 10.56 4 16 C2.35 14.35 0.7 12.7 -1 11 C-0.8125 7.375 -0.8125 7.375 0 4 C0 3.01 0 2.02 0 1 C0 0.67 0 0.34 0 0 Z " fill="#394C57" transform="translate(21,66)"/>
<path d="M0 0 C0.33 0 0.66 0 1 0 C1.22262303 6.7281627 0.95021536 12.53991163 -1 19 C-1.66 19 -2.32 19 -3 19 C-3 17.35 -3 15.7 -3 14 C-2.34 14 -1.68 14 -1 14 C-1.33 13.01 -1.66 12.02 -2 11 C-1.67 10.67 -1.34 10.34 -1 10 C-0.76712992 8.31816052 -0.58735834 6.6287584 -0.4375 4.9375 C-0.31181641 3.55884766 -0.31181641 3.55884766 -0.18359375 2.15234375 C-0.12300781 1.44207031 -0.06242188 0.73179688 0 0 Z " fill="#384753" transform="translate(175,65)"/>
<path d="M0 0 C0.33 0 0.66 0 1 0 C1.33 2.31 1.66 4.62 2 7 C1.360625 7.103125 0.72125 7.20625 0.0625 7.3125 C-0.618125 7.539375 -1.29875 7.76625 -2 8 C-2.33 8.99 -2.66 9.98 -3 11 C-3.66 11 -4.32 11 -5 11 C-5 11.66 -5 12.32 -5 13 C-6.32 12.67 -7.64 12.34 -9 12 C-8.236875 11.608125 -7.47375 11.21625 -6.6875 10.8125 C-3.08376081 8.38207124 -1.54224792 5.82392483 -0.3125 1.6875 C-0.209375 1.130625 -0.10625 0.57375 0 0 Z " fill="#144991" transform="translate(338,62)"/>
<path d="M0 0 C7.63076923 1.47692308 7.63076923 1.47692308 9.5 4.125 C9.665 4.74375 9.83 5.3625 10 6 C9.01 6.66 8.02 7.32 7 8 C7 6.68 7 5.36 7 4 C5.02 3.34 3.04 2.68 1 2 C1 2.66 1 3.32 1 4 C0.01 4.33 -0.98 4.66 -2 5 C-1.34 3.35 -0.68 1.7 0 0 Z " fill="#374953" transform="translate(390,104)"/>
<path d="M0 0 C4.66666667 2.33333333 9.33333333 4.66666667 14 7 C11.69 7.33 9.38 7.66 7 8 C6.67 7.34 6.34 6.68 6 6 C5.175 5.525625 4.35 5.05125 3.5 4.5625 C1 3 1 3 0 0 Z " fill="#3E4E58" transform="translate(116,88)"/>
<path d="M0 0 C0.33 0.66 0.66 1.32 1 2 C-0.21484375 4.8203125 -0.21484375 4.8203125 -1.9375 8.125 C-2.50339844 9.22070312 -3.06929688 10.31640625 -3.65234375 11.4453125 C-4.09707031 12.28835937 -4.54179687 13.13140625 -5 14 C-5.5534764 11.92446352 -6 10.15634036 -6 8 C-5 7 -4 6 -3 5 C-2.30251417 3.68252676 -1.63040043 2.35085807 -1 1 C-0.67 0.67 -0.34 0.34 0 0 Z " fill="#3C4C58" transform="translate(406,68)"/>
<path d="M0 0 C2 1 2 1 3 3 C2.67 3.99 2.34 4.98 2 6 C-0.73030993 7.2676439 -1.87352646 7.04311598 -4.75 6.0625 C-5.4925 5.711875 -6.235 5.36125 -7 5 C-7 4.67 -7 4.34 -7 4 C-5.35 4 -3.7 4 -2 4 C-1.34 2.68 -0.68 1.36 0 0 Z " fill="#084BA3" transform="translate(331,36)"/>
<path d="M0 0 C0.5625 1.9375 0.5625 1.9375 1 4 C0 5 0 5 -1.84765625 5.09765625 C-3.8984375 5.06510417 -5.94921875 5.03255208 -8 5 C-5.59078295 2.59078295 -3.05665491 1.46187844 0 0 Z " fill="#114D93" transform="translate(246,95)"/>
<path d="M0 0 C2.475 0.99 2.475 0.99 5 2 C5 3.65 5 5.3 5 7 C4.01 7.33 3.02 7.66 2 8 C0.74335022 5.09399739 0 3.20395416 0 0 Z " fill="#034CAE" transform="translate(242,36)"/>
<path d="M0 0 C4.99275057 1.27721526 7.57611908 3.17330957 11 7 C9.53633658 6.60246179 8.0791065 6.18118616 6.625 5.75 C5.81289063 5.51796875 5.00078125 5.2859375 4.1640625 5.046875 C1.54214546 3.7785108 1.00617682 2.67576692 0 0 Z " fill="#154A92" transform="translate(330,34)"/>
<path d="M0 0 C5.57142857 5.14285714 5.57142857 5.14285714 6 9 C4.0625 8.1875 4.0625 8.1875 2 7 C1.67 6.01 1.34 5.02 1 4 C0.34 3.67 -0.32 3.34 -1 3 C-0.67 2.01 -0.34 1.02 0 0 Z " fill="#3C4E5B" transform="translate(408,23)"/>
<path d="M0 0 C0.6875 1.8125 0.6875 1.8125 1 4 C-0.3125 5.75 -0.3125 5.75 -2 7 C-2.66 7 -3.32 7 -4 7 C-3.43628586 3.73045798 -2.50037734 2.17424117 0 0 Z " fill="#0B4591" transform="translate(253,88)"/>
<path d="M0 0 C0.99 0.33 1.98 0.66 3 1 C3 1.33 3 1.66 3 2 C1.54077307 1.88590407 0.08259402 1.75834456 -1.375 1.625 C-2.59316406 1.52058594 -2.59316406 1.52058594 -3.8359375 1.4140625 C-6 1 -6 1 -8 -1 C-4.32740566 -2.22419811 -3.42541582 -1.54143712 0 0 Z " fill="#3D4E57" transform="translate(124,108)"/>
<path d="M0 0 C4.875 1.75 4.875 1.75 6 4 C5.01 4.99 4.02 5.98 3 7 C0 2.25 0 2.25 0 0 Z " fill="#3C4C57" transform="translate(383,100)"/>
<path d="M0 0 C0.99 0.66 1.98 1.32 3 2 C2.6875 3.9375 2.6875 3.9375 2 6 C1.01 6.33 0.02 6.66 -1 7 C-1 6.34 -1 5.68 -1 5 C-1.66 4.67 -2.32 4.34 -3 4 C-2.01 3.34 -1.02 2.68 0 2 C0 1.34 0 0.68 0 0 Z " fill="#334450" transform="translate(163,41)"/>
</svg>
